<svg width="41" height="38" viewBox="0 0 41 38" fill="none" xmlns="http://www.w3.org/2000/svg">
<g clip-path="url(#clip0_192_117)">
<path d="M25.8645 19.5826C28.1715 19.4686 29.5913 17.9775 29.5913 15.6349C29.5913 15.46 29.5809 15.2842 29.5609 15.1101C31.1088 14.1197 31.7742 12.7932 31.7742 10.7371C31.7742 8.68097 31.1088 7.35518 29.5609 6.36405C29.5809 6.1899 29.5913 6.01414 29.5913 5.83919C29.5913 3.49659 28.1715 2.00549 25.8645 1.89153C25.2463 0.736679 24.0379 0.0200161 22.6397 -4.72949e-05C21.8245 -0.0104802 21.1567 0.235095 20.6538 0.731864C20.6001 0.784831 20.5489 0.840206 20.5 0.898791C20.4512 0.840206 20.3999 0.784831 20.3463 0.731864C19.8434 0.235095 19.1747 -0.0104802 18.3603 -4.72949e-05C16.9622 0.0192135 15.7538 0.736679 15.1356 1.89233C12.8285 2.00629 11.4088 3.4974 11.4088 5.83999C11.4088 6.01495 11.4192 6.1907 11.4392 6.36485C9.89208 7.35518 9.22583 8.68177 9.22583 10.7379C9.22583 12.794 9.89128 14.1197 11.4392 15.1109C11.4192 15.285 11.4088 15.4608 11.4088 15.6357C11.4088 17.9783 12.8285 19.4694 15.1356 19.5834C15.7538 20.739 16.9622 21.4565 18.3603 21.4758C18.3788 21.4758 18.3964 21.4758 18.414 21.4758C19.2044 21.4758 19.8538 21.2294 20.3463 20.7431C20.3999 20.6901 20.4512 20.6347 20.5 20.5761C20.5489 20.6347 20.6001 20.6901 20.6538 20.7431C21.1455 21.2294 21.7957 21.4758 22.5853 21.4758C22.6029 21.4758 22.6213 21.4758 22.6389 21.4758C24.0371 21.4565 25.2455 20.739 25.8637 19.5834L25.8645 19.5826ZM19.6992 17.7705C19.6992 18.6589 19.5343 19.2913 19.222 19.6002C19.033 19.7872 18.7575 19.8755 18.3828 19.8707C17.55 19.8595 16.8421 19.4341 16.5121 18.756C16.6242 18.5457 16.7924 18.37 17.003 18.248C17.2993 18.0762 17.6436 18.0305 17.9736 18.1196C18.4004 18.2343 18.84 17.9807 18.9545 17.553C19.069 17.1252 18.816 16.6846 18.3892 16.5699C17.6452 16.37 16.8685 16.4728 16.2014 16.8588C15.7362 17.1284 15.3638 17.5129 15.1124 17.9751C13.7166 17.8756 13.0103 17.0907 13.0103 15.6357C13.0103 15.4511 13.0279 15.2658 13.0624 15.0844C13.1529 14.6101 12.935 14.1302 12.5194 13.891C11.2702 13.1703 10.8274 12.3453 10.8274 10.7387C10.8274 9.13199 11.2702 8.30698 12.5186 7.58631C12.935 7.34635 13.1529 6.86724 13.0624 6.39214C13.0279 6.21157 13.0103 6.02618 13.0103 5.8416C13.0103 4.28228 13.8231 3.49178 15.4255 3.49178H15.4351C15.4583 3.49178 15.4815 3.49178 15.5048 3.48937C15.9148 3.66192 16.1462 4.12016 16.0277 4.56637C15.914 4.99493 16.1686 5.43391 16.5954 5.54787C16.6643 5.56633 16.734 5.57516 16.802 5.57516C17.156 5.57516 17.4803 5.33761 17.5756 4.97888C17.8374 3.99096 17.4747 2.98057 16.7316 2.37385C17.1079 1.90035 17.7045 1.61545 18.3836 1.60663C18.7583 1.60101 19.033 1.69009 19.2228 1.87708C19.5351 2.18606 19.7 2.81845 19.7 3.70686V17.7729L19.6992 17.7705ZM24.9724 16.9102C25.0861 16.4816 24.8315 16.0426 24.4046 15.9287C23.977 15.8147 23.5382 16.0699 23.4253 16.4977C23.1634 17.4856 23.5262 18.496 24.2693 19.1027C23.8929 19.5762 23.2964 19.8611 22.6173 19.8699C22.2425 19.8763 21.9679 19.7864 21.7781 19.5994C21.4658 19.2905 21.3008 18.6581 21.3008 17.7705V3.70445C21.3008 2.81685 21.4658 2.18365 21.7781 1.87548C21.9671 1.68848 22.2417 1.60021 22.6173 1.60502C23.4493 1.61626 24.158 2.0416 24.4879 2.71974C24.3758 2.93001 24.2076 3.10576 23.997 3.22775C23.7008 3.39949 23.3564 3.44523 23.0265 3.35615C22.5997 3.24139 22.16 3.49499 22.0455 3.92274C21.931 4.35049 22.1841 4.79108 22.6109 4.90585C22.8591 4.97246 23.1114 5.00616 23.362 5.00616C23.8617 5.00616 24.3542 4.87455 24.7986 4.61693C25.2639 4.34728 25.6362 3.96287 25.8877 3.50061C27.2834 3.60012 27.9897 4.3858 27.9897 5.83999C27.9897 6.02458 27.9721 6.20996 27.9377 6.39134C27.8464 6.86563 28.065 7.34555 28.4806 7.5847C29.7298 8.30538 30.1727 9.13038 30.1727 10.7371C30.1727 12.3437 29.7298 13.1687 28.4814 13.8894C28.065 14.1294 27.8472 14.6085 27.9377 15.0836C27.9721 15.2642 27.9897 15.4495 27.9897 15.6341C27.9897 17.1934 27.1769 17.9839 25.5746 17.9839H25.5682C25.5434 17.9839 25.5193 17.9839 25.4945 17.9864C25.0845 17.8138 24.8539 17.3556 24.9724 16.9093V16.9102Z" fill="black"/>
<path d="M15.9579 9.09516C15.0106 9.09516 14.1874 9.63687 13.8087 10.5084C13.4323 11.3752 13.5972 12.3422 14.2395 13.0324C14.2699 13.0653 14.3019 13.0982 14.334 13.1303C14.4901 13.2868 14.6951 13.3646 14.9001 13.3646C15.1051 13.3646 15.3101 13.286 15.4671 13.1295C15.7794 12.8157 15.7794 12.3077 15.4663 11.9947C15.4479 11.9763 15.4294 11.957 15.4118 11.9377C15.1107 11.6143 15.234 11.2516 15.2789 11.148C15.3245 11.0429 15.5087 10.6994 15.9596 10.6994C16.4104 10.6994 16.7603 10.3399 16.7603 9.89689C16.7603 9.4539 16.4016 9.09436 15.9596 9.09436L15.9579 9.09516Z" fill="black"/>
<path d="M25.5345 11.9955C25.2214 12.3084 25.2214 12.8164 25.5337 13.1302C25.6899 13.2875 25.8957 13.3654 26.1007 13.3654C26.3057 13.3654 26.5099 13.2867 26.6668 13.131C26.6989 13.0989 26.7309 13.066 26.7613 13.0323C27.4028 12.3421 27.5677 11.3751 27.1913 10.5084C26.8126 9.6368 25.9894 9.09509 25.0421 9.09509C24.6 9.09509 24.2413 9.45463 24.2413 9.89763C24.2413 10.3406 24.6 10.7002 25.0421 10.7002C25.4841 10.7002 25.6771 11.0436 25.7227 11.1488C25.7676 11.2523 25.8909 11.6142 25.5898 11.9385C25.5722 11.9577 25.5538 11.977 25.5345 11.9955Z" fill="black"/>
<path d="M13.3466 21.5962L7.76437 16.0836V10.1481C7.76437 8.80702 6.67611 7.71638 5.33801 7.71638C5.3252 7.71638 5.25553 7.71798 5.25393 7.71798C5.11699 7.7228 4.98086 7.73885 4.84793 7.76694V7.17386C4.84793 5.84727 3.83334 4.75984 2.53768 4.69885C1.849 4.66594 1.14752 4.92436 0.662246 5.38822C0.247441 5.78307 0.0192188 6.2983 0.0192188 6.83921C0.0192188 8.73158 0.00800781 17.5498 0 20.3105C0 20.3756 0 20.4406 0.00160156 20.5048C0.0392383 22.4718 0.908887 24.381 2.38793 25.7437C2.40074 25.7557 2.41355 25.767 2.42717 25.7774L8.67166 30.8254V37.1975C8.67166 37.6405 9.03041 38 9.47244 38H15.1011C15.5432 38 15.9019 37.6405 15.9019 37.1975V27.7155C15.9019 25.4307 14.9706 23.2005 13.3466 21.597V21.5962ZM5.30357 9.32225H5.33721C5.79205 9.32225 6.16201 9.69222 6.16201 10.1481V15.1687C5.72398 15.0965 5.27074 15.1382 4.84713 15.2963V9.48276C4.98006 9.38404 5.13701 9.32867 5.30357 9.32225ZM14.3004 36.3949H10.2732V30.4417C10.2732 30.1994 10.1635 29.9691 9.97533 29.8174L3.45377 24.5455C2.30625 23.4798 1.63199 21.9975 1.60316 20.4751C1.60236 20.4221 1.60156 20.3691 1.60156 20.3154C1.60877 17.5538 1.62078 8.73319 1.62078 6.83921C1.62078 6.73889 1.66963 6.64178 1.76652 6.54949C1.93629 6.38738 2.20855 6.29027 2.4616 6.30231C2.89402 6.32237 3.24557 6.71401 3.24557 7.17386V17.0386C3.21834 17.1357 3.19752 17.2352 3.1815 17.3364C3.05578 18.1445 3.32084 18.9743 3.8918 19.5578L9.5317 25.4708C9.8376 25.7911 10.3445 25.8031 10.664 25.4965C10.9835 25.19 10.9947 24.682 10.6896 24.3617L5.04572 18.4447C5.04572 18.4447 5.04012 18.439 5.03771 18.4358C4.8151 18.2095 4.715 17.8981 4.76465 17.5835C4.79588 17.3821 4.88717 17.1983 5.02891 17.0499C5.05453 17.0266 5.10658 16.9792 5.13381 16.9543C5.531 16.6414 6.09475 16.6767 6.45189 17.0402C6.4551 17.0434 6.4575 17.0458 6.4607 17.0482L12.2239 22.7398C13.5444 24.0439 14.302 25.8577 14.302 27.7155V36.3949H14.3004Z" fill="black"/>
<path d="M40.9808 6.83922C40.9808 6.29911 40.7525 5.78308 40.3393 5.38823C39.8541 4.92357 39.1526 4.66675 38.4639 4.69886C37.1682 4.75985 36.1537 5.84728 36.1537 7.17387V7.76694C36.0207 7.73966 35.8854 7.72281 35.7485 7.71799C35.7469 7.71799 35.6764 7.71639 35.6636 7.71639C34.3255 7.71639 33.2372 8.80703 33.2372 10.1481V16.0836L27.655 21.5962C26.031 23.1997 25.0997 25.4299 25.0997 27.7147V37.1967C25.0997 37.6397 25.4584 37.9992 25.9005 37.9992H31.5291C31.9712 37.9992 32.3299 37.6397 32.3299 37.1967V30.8246L38.5744 25.7766C38.588 25.7654 38.6008 25.7549 38.6137 25.7429C40.0927 24.3802 40.9623 22.471 41 20.504C41.0016 20.4398 41.0016 20.3748 41.0016 20.3098C40.9944 17.549 40.9824 8.73079 40.9824 6.83841L40.9808 6.83922ZM35.658 9.32145H35.6972C35.8638 9.32868 36.0207 9.38405 36.1537 9.48276V15.2955C35.73 15.1374 35.276 15.0957 34.8388 15.1679V10.1473C34.8388 9.69142 35.2087 9.32065 35.6588 9.32065L35.658 9.32145ZM39.3968 20.4743C39.368 21.9967 38.6937 23.479 37.5462 24.5455L31.0246 29.8174C30.8365 29.9699 30.7268 30.1994 30.7268 30.4417V36.3949H26.6996V27.7155C26.6996 25.8577 27.4572 24.0439 28.7777 22.7398L34.5409 17.0483C34.5409 17.0483 34.5465 17.0426 34.5497 17.0402C34.9068 16.6767 35.4714 16.6414 35.867 16.9544C35.8934 16.9784 35.9471 17.0266 35.9727 17.0499C36.1136 17.1975 36.2049 17.3813 36.2361 17.5827C36.285 17.8981 36.1857 18.2087 35.9631 18.435C35.9607 18.4374 35.9583 18.4398 35.9567 18.4423L33.1123 21.4068C32.8056 21.7262 32.816 22.2342 33.1347 22.5416C33.4534 22.849 33.9603 22.8385 34.267 22.5191L37.109 19.557C37.6799 18.9735 37.945 18.1437 37.8193 17.3348C37.8033 17.2336 37.7824 17.1341 37.7552 17.037V7.17227C37.7552 6.71161 38.1068 6.32078 38.5392 6.30071C38.7922 6.28948 39.0645 6.38578 39.2343 6.54789C39.3312 6.64019 39.38 6.7381 39.38 6.83761C39.38 8.73079 39.3912 17.5522 39.3992 20.3138C39.3992 20.3675 39.3992 20.4205 39.3984 20.4735L39.3968 20.4743Z" fill="black"/>
<path d="M31.9135 24.287C31.7822 23.9668 31.4467 23.7638 31.1023 23.7943C30.7716 23.824 30.4865 24.0639 30.4008 24.3857C30.316 24.7052 30.4393 25.0527 30.7075 25.2461C30.9782 25.4411 31.3546 25.4443 31.6292 25.2533C31.9351 25.0406 32.0569 24.6313 31.9135 24.2862V24.287Z" fill="black"/>
</g>
<defs>
<clipPath id="clip0_192_117">
<rect width="41" height="38" fill="white"/>
</clipPath>
</defs>
</svg>
