<svg width="37" height="35" viewBox="0 0 37 35" fill="none" xmlns="http://www.w3.org/2000/svg">
<g clip-path="url(#clip0_192_271)">
<path d="M37 18.8017C37 18.8017 37 18.795 37 18.7922C37 18.7884 37 18.7837 37 18.7799V4.8235C37 4.06164 36.6194 3.35007 35.9823 2.92028C35.4739 2.57777 34.8559 2.45064 34.261 2.55405L30.9839 0.127107C30.9743 0.119517 30.9637 0.113824 30.9541 0.107183C30.9474 0.102439 30.9407 0.0976952 30.9339 0.0939001C30.9157 0.0825149 30.8974 0.0730272 30.8782 0.0635396C30.8763 0.0635396 30.8753 0.061642 30.8734 0.0606933C30.8522 0.0502568 30.8301 0.0417179 30.8071 0.0341278C30.8051 0.0341278 30.8032 0.0341278 30.8023 0.0322303C30.7821 0.0255889 30.7619 0.0198963 30.7417 0.0151525C30.7359 0.0142037 30.7292 0.0132549 30.7235 0.0113574C30.7071 0.0085111 30.6908 0.0056648 30.6754 0.00376727C30.6677 0.0028185 30.6591 0.00186974 30.6514 0.00186974C30.637 0.000920971 30.6225 -2.77959e-05 30.6081 -0.000976562C30.5995 -0.000976562 30.5899 -0.000976562 30.5812 -0.000976562C30.5668 -0.000976562 30.5534 -2.77959e-05 30.5389 0.00186974C30.5303 0.00186974 30.5216 0.0028185 30.512 0.00471604C30.4957 0.00661357 30.4794 0.00945987 30.464 0.0132549C30.4592 0.0142037 30.4534 0.0151525 30.4486 0.0161012L23.5051 1.5977C22.101 1.91743 20.8276 2.62616 19.8234 3.64798C19.2813 4.19921 18.8325 4.82635 18.4914 5.50472C17.5101 3.5588 15.6851 2.09959 13.4795 1.5977L6.53603 0.0161012C6.53122 0.0151525 6.52545 0.0142037 6.52065 0.0132549C6.50431 0.0104086 6.48893 0.00756234 6.4726 0.00471604C6.46395 0.00376727 6.4553 0.0028185 6.44569 0.00186974C6.43127 0.000920971 6.41782 -2.77959e-05 6.40436 -0.000976562C6.39571 -0.000976562 6.3861 -0.000976562 6.37745 -0.000976562C6.36304 -0.000976562 6.34862 -2.77959e-05 6.33421 0.000920971C6.32556 0.000920971 6.31787 0.00186974 6.30922 0.00376727C6.29288 0.0056648 6.27751 0.0085111 6.26117 0.0113574C6.25444 0.0123062 6.24868 0.0132549 6.24195 0.0151525C6.22177 0.0198963 6.20255 0.0255889 6.18236 0.0322303C6.18044 0.0322303 6.17756 0.033179 6.17564 0.0341278C6.15353 0.0417179 6.13143 0.0502568 6.11029 0.0606933C6.10836 0.061642 6.10548 0.0635396 6.10356 0.0644883C6.0853 0.0730272 6.06704 0.0825149 6.04974 0.0939001C6.04301 0.0986439 6.03629 0.103388 6.02956 0.107183C6.01995 0.113824 6.00938 0.119517 5.99977 0.127107L2.77356 2.51705C2.16714 2.39845 1.53286 2.52274 1.01294 2.87284C0.378649 3.30168 0 4.00946 0 4.76752V18.74C0 20.6205 1.14652 22.2789 2.91964 22.9649L13.2825 26.9715L1.29644 31.5787V29.5408C1.29644 28.9098 1.71449 28.3662 2.33629 28.1859C3.65964 27.8036 4.87151 27.1679 5.93922 26.2969C6.21504 26.0721 6.25444 25.6679 6.02571 25.3956C5.79795 25.1233 5.38855 25.0844 5.11273 25.3102C4.18148 26.0702 3.12434 26.6243 1.97109 26.9582C0.810156 27.2941 0 28.3567 0 29.5417V32.5161C0 33.3254 0.403636 34.0806 1.08021 34.5379C1.75678 34.9943 2.61691 35.092 3.37997 34.7988L18.4981 28.9886L33.6191 34.8349C33.9112 34.9478 34.2178 35.0038 34.5224 35.0038C35.0135 35.0038 35.5008 34.8596 35.9179 34.5778C36.5944 34.1224 36.999 33.3671 36.999 32.5578C36.999 32.5522 36.9981 32.5474 36.9981 32.5417C36.9981 32.5332 36.999 32.5256 36.999 32.5171V29.5465C36.999 28.3596 36.187 27.2969 35.0231 26.962C33.3836 26.4895 31.9084 25.5436 30.7917 24.2656L34.0756 23.0038C35.8439 22.3235 36.9894 20.6774 36.9981 18.8055L37 18.8017ZM34.2879 17.5721C34.2879 17.5721 34.2918 17.5702 34.2937 17.5692C34.3072 17.5635 34.3206 17.5578 34.3331 17.5512C34.3398 17.5484 34.3466 17.5455 34.3533 17.5417C34.3648 17.536 34.3754 17.5294 34.386 17.5227C34.3937 17.518 34.4023 17.5133 34.41 17.5085C34.4186 17.5028 34.4263 17.4971 34.434 17.4914C34.4436 17.4848 34.4532 17.4781 34.4619 17.4706C34.4677 17.4658 34.4734 17.4601 34.4792 17.4554C34.4888 17.4468 34.4994 17.4383 34.508 17.4288C34.5138 17.4241 34.5186 17.4184 34.5234 17.4127C34.5321 17.4032 34.5417 17.3937 34.5503 17.3842C34.5561 17.3766 34.5618 17.369 34.5676 17.3615C34.5743 17.3529 34.5811 17.3444 34.5868 17.3358C34.5945 17.3254 34.6003 17.314 34.607 17.3036C34.6109 17.2969 34.6147 17.2912 34.6185 17.2846C34.6253 17.2723 34.632 17.259 34.6387 17.2457C34.6416 17.241 34.6435 17.2353 34.6464 17.2305C34.6522 17.2172 34.657 17.204 34.6618 17.1907C34.6637 17.185 34.6666 17.1783 34.6685 17.1726C34.6724 17.1613 34.6752 17.1489 34.6781 17.1375C34.6801 17.129 34.6829 17.1205 34.6849 17.1119C34.6868 17.1024 34.6887 17.093 34.6897 17.0825C34.6916 17.0711 34.6935 17.0588 34.6954 17.0474C34.6954 17.0398 34.6964 17.0322 34.6974 17.0246C34.6983 17.0104 34.6993 16.9962 34.6993 16.9819C34.6993 16.98 34.6993 16.9781 34.6993 16.9763V3.79978C34.8924 3.80547 35.0818 3.8643 35.25 3.97815C35.5373 4.1717 35.7026 4.48005 35.7026 4.82445V18.3434L19.1401 24.7078V23.6489C19.833 23.5133 20.5566 23.1565 21.4023 22.5408L34.287 17.574L34.2879 17.5721ZM18.4923 21.7609C18.9632 21.7609 19.4216 21.8482 19.8493 22.017C19.339 22.2998 18.9017 22.4317 18.4923 22.4317C18.0829 22.4317 17.6466 22.2998 17.1353 22.017C17.563 21.8491 18.0214 21.7609 18.4923 21.7609ZM15.8149 21.2542L4.22569 16.7874L6.54756 14.9867L13.1883 16.499C14.3493 16.7637 15.4016 17.3491 16.2319 18.1935C16.8912 18.8643 17.3804 19.6679 17.6716 20.5484C17.0114 20.6565 16.3838 20.8956 15.8158 21.2552L15.8149 21.2542ZM31.2934 15.6499C31.4125 15.7419 31.5528 15.7865 31.6931 15.7865C31.8854 15.7865 32.0756 15.7021 32.2035 15.5417C32.4245 15.2637 32.3755 14.8615 32.0939 14.6432L31.2415 13.9819V1.91933L33.4028 3.51895V16.5379L21.1698 21.2533C20.6018 20.8937 19.9733 20.6546 19.314 20.5465C19.61 19.6499 20.1117 18.833 20.7892 18.1556C21.6138 17.3311 22.6536 16.758 23.7963 16.4971L30.4371 14.9848L31.2924 15.6489L31.2934 15.6499ZM3.58179 3.5199L5.74317 1.92028V3.20016C5.74317 3.55405 6.0334 3.84058 6.39187 3.84058C6.75034 3.84058 7.04057 3.55405 7.04057 3.20016V1.44399L13.1893 2.84437C15.5314 3.37758 17.3525 5.21629 17.8455 7.53508V9.17265C17.8455 9.52654 18.1358 9.81307 18.4942 9.81307C18.8527 9.81307 19.1429 9.52654 19.1429 9.17265V7.53413C19.3832 6.4032 19.9396 5.36809 20.7565 4.53792C21.5869 3.69352 22.6392 3.10813 23.7992 2.84343L29.9479 1.44305V13.7837L23.507 15.2504C22.1241 15.5654 20.8661 16.259 19.8685 17.2571C19.6033 17.5218 19.3611 17.8055 19.142 18.1034V15.147C19.142 14.7931 18.8517 14.5066 18.4933 14.5066C18.1348 14.5066 17.8446 14.7931 17.8446 15.147V18.1034C17.637 17.8216 17.4102 17.5531 17.1613 17.3007C16.157 16.2799 14.8836 15.5711 13.4795 15.2504L7.03865 13.7837V6.61288C7.03865 6.25899 6.74842 5.97246 6.38995 5.97246C6.03148 5.97246 5.74125 6.25899 5.74125 6.61288V13.9819L3.57987 15.6584V3.5199H3.58179ZM1.29644 18.3036V4.76752C1.29644 4.42692 1.45982 4.12236 1.74429 3.93071C1.90862 3.81971 2.09507 3.76183 2.28439 3.75424V16.9753C2.28439 16.9753 2.28439 16.9782 2.28439 16.98C2.28439 17.0076 2.28631 17.0351 2.29016 17.0626C2.29016 17.0664 2.29208 17.0711 2.29208 17.0749C2.29592 17.0977 2.30073 17.1205 2.30649 17.1423C2.30842 17.1489 2.31034 17.1546 2.3113 17.1613C2.31899 17.1859 2.32764 17.2106 2.33821 17.2353C2.33917 17.2381 2.34109 17.241 2.34301 17.2438C2.35262 17.2647 2.36416 17.2856 2.37665 17.3055C2.38049 17.3112 2.38338 17.3169 2.38722 17.3226C2.40164 17.3444 2.41701 17.3652 2.43335 17.3852C2.45065 17.406 2.46987 17.425 2.49101 17.444C2.49486 17.4478 2.49966 17.4516 2.50447 17.4554C2.52177 17.4706 2.54099 17.4848 2.56021 17.4981C2.56405 17.5009 2.56694 17.5038 2.57078 17.5057C2.59384 17.5208 2.61787 17.5341 2.6419 17.5465C2.64382 17.5465 2.64478 17.5484 2.6467 17.5493C2.65247 17.5522 2.65919 17.5541 2.66496 17.5569C2.67457 17.5616 2.68418 17.5664 2.69379 17.5702L15.5794 22.537C16.4251 23.1537 17.1478 23.5095 17.8417 23.6451V24.7011L1.29644 18.3036ZM29.5097 23.3823L24.3806 25.3501C24.0471 25.4782 23.8818 25.8491 24.0116 26.1783C24.1115 26.4317 24.3566 26.5863 24.6161 26.5863C24.6939 26.5863 24.7737 26.5721 24.8505 26.5427L29.5222 24.7504C30.8301 26.3909 32.6369 27.6034 34.6618 28.1869C35.2855 28.3662 35.7045 28.9117 35.7045 29.5427V31.6157L22.1721 26.3833C21.8386 26.2542 21.4629 26.4165 21.3322 26.7457C21.2015 27.0749 21.3658 27.4459 21.6993 27.5749L35.6315 32.962C35.5488 33.184 35.397 33.3757 35.1894 33.5161C34.8617 33.7362 34.4629 33.7808 34.0938 33.6385L18.7403 27.703C18.6797 27.6793 18.6153 27.666 18.55 27.6613C18.4519 27.6537 18.3539 27.667 18.2617 27.703L2.91099 33.6024C2.54099 33.7448 2.1412 33.6992 1.81348 33.4781C1.6059 33.3377 1.45405 33.1451 1.3714 32.9231L15.3017 27.5692C15.5506 27.4734 15.7149 27.2372 15.7149 26.9734C15.7149 26.7097 15.5515 26.4734 15.3026 26.3766L3.39439 21.7732C2.44777 21.407 1.75101 20.6556 1.45597 19.7391L18.2578 26.2381C18.2636 26.24 18.2694 26.2419 18.2742 26.2438C18.2857 26.2485 18.2982 26.2523 18.3107 26.2561C18.3193 26.259 18.327 26.2599 18.3357 26.2628C18.3472 26.2656 18.3587 26.2685 18.3703 26.2713C18.3808 26.2732 18.3914 26.2751 18.402 26.2761C18.4116 26.277 18.4212 26.2789 18.4308 26.2799C18.4519 26.2818 18.4731 26.2827 18.4933 26.2827C18.5135 26.2827 18.5356 26.2818 18.5557 26.2799C18.5654 26.2799 18.575 26.277 18.5836 26.2761C18.5942 26.2742 18.6057 26.2732 18.6163 26.2713C18.6278 26.2694 18.6394 26.2666 18.6499 26.2637C18.6586 26.2618 18.6672 26.2599 18.6759 26.2571C18.6874 26.2533 18.6989 26.2495 18.7105 26.2457C18.7162 26.2438 18.722 26.2419 18.7278 26.24L35.5469 19.778C35.2509 20.6945 34.5542 21.4449 33.6066 21.8093L29.5097 23.3833V23.3823Z" fill="black"/>
<path d="M17.2352 10.4668C16.2185 9.4032 14.9201 8.66696 13.4785 8.33868L9.12887 7.34817C8.78001 7.26847 8.43211 7.4829 8.35139 7.82825C8.27066 8.17265 8.48882 8.5161 8.83767 8.5958L13.1873 9.58631C14.3781 9.85766 15.4515 10.4658 16.2915 11.3453C16.4193 11.4791 16.5913 11.5465 16.7634 11.5465C16.9229 11.5465 17.0824 11.4886 17.2083 11.3719C17.4688 11.129 17.4803 10.7239 17.2352 10.4668Z" fill="black"/>
<path d="M17.2352 6.62717C16.2185 5.5636 14.9201 4.82736 13.4785 4.49908L9.12887 3.50857C8.78001 3.42887 8.43211 3.6433 8.35139 3.98865C8.27066 4.33305 8.48882 4.6765 8.83767 4.7562L13.1873 5.74671C14.3781 6.01806 15.4515 6.62622 16.2915 7.50572C16.4193 7.6395 16.5913 7.70686 16.7634 7.70686C16.9229 7.70686 17.0824 7.64899 17.2083 7.53229C17.4688 7.28941 17.4803 6.88428 17.2352 6.62717Z" fill="black"/>
<path d="M17.2352 14.3073C16.2185 13.2438 14.9201 12.5075 13.4785 12.1793L9.12887 11.1887C8.78001 11.109 8.43211 11.3235 8.35139 11.6688C8.27066 12.0132 8.48882 12.3567 8.83767 12.4364L13.1873 13.4269C14.3781 13.6982 15.4515 14.3064 16.2915 15.1859C16.4193 15.3197 16.5913 15.387 16.7634 15.387C16.9229 15.387 17.0824 15.3292 17.2083 15.2125C17.4688 14.9696 17.4803 14.5645 17.2352 14.3073Z" fill="black"/>
<path d="M28.6333 3.9886C28.5525 3.6442 28.2046 3.42883 27.8558 3.50852L23.5061 4.49903C22.0655 4.82731 20.7662 5.5626 19.7504 6.62712C19.5043 6.88423 19.5168 7.28936 19.7773 7.53224C19.9022 7.64894 20.0627 7.70681 20.2222 7.70681C20.3943 7.70681 20.5663 7.63945 20.6941 7.50568C21.5341 6.62617 22.6075 6.01801 23.7983 5.74666L28.1479 4.75615C28.4968 4.67645 28.714 4.333 28.6342 3.9886H28.6333Z" fill="black"/>
<path d="M28.6333 7.82827C28.5525 7.48387 28.2046 7.26945 27.8558 7.34819L23.5061 8.33871C22.0655 8.66698 20.7662 9.40227 19.7504 10.4668C19.5043 10.7239 19.5168 11.129 19.7773 11.3719C19.9022 11.4886 20.0627 11.5465 20.2222 11.5465C20.3943 11.5465 20.5663 11.4791 20.6941 11.3453C21.5341 10.4658 22.6075 9.85768 23.7983 9.58633L28.1479 8.59582C28.4968 8.51612 28.714 8.17267 28.6342 7.82827H28.6333Z" fill="black"/>
<path d="M28.6333 11.6688C28.5525 11.3244 28.2046 11.11 27.8558 11.1888L23.5061 12.1793C22.0655 12.5076 20.7662 13.2428 19.7504 14.3074C19.5043 14.5645 19.5168 14.9696 19.7773 15.2125C19.9022 15.3292 20.0627 15.3871 20.2222 15.3871C20.3943 15.3871 20.5663 15.3197 20.6941 15.1859C21.5341 14.3064 22.6075 13.6983 23.7983 13.4269L28.1479 12.4364C28.4968 12.3567 28.714 12.0132 28.6342 11.6688H28.6333Z" fill="black"/>
</g>
<defs>
<clipPath id="clip0_192_271">
<rect width="37" height="35" fill="white"/>
</clipPath>
</defs>
</svg>
