<svg width="40" height="42" viewBox="0 0 40 42" fill="none" xmlns="http://www.w3.org/2000/svg">
<path d="M11.8361 36.0409H24.6262C25.5822 36.0409 26.5204 35.7959 27.3517 35.3312L37.737 29.518C38.4792 29.1063 38.9245 28.2358 38.685 27.2947C38.5168 26.6379 37.9844 26.0967 37.3253 25.9203C36.8324 25.787 36.3574 25.8379 35.9536 26.0203L30.8312 28.2593" stroke="black" stroke-width="1.5" stroke-linecap="round" stroke-linejoin="round"/>
<path d="M7.69926 40.7464L12.7999 37.5153L5.85061 26.8613L0.75 30.0924L7.69926 40.7464Z" stroke="black" stroke-width="1.5" stroke-linejoin="round"/>
<path d="M6.79321 28.3083L11.0309 25.2713C11.0309 25.2713 13.3941 23.493 16.0662 23.493C18.7382 23.493 20.569 24.538 21.5171 25.236C22.0713 25.6438 22.7522 25.8458 23.441 25.8458H28.3239C29.6104 25.8458 30.7623 26.8006 30.8296 28.073C30.9009 29.4298 29.8123 30.5532 28.4584 30.5532H19.7496" stroke="black" stroke-width="1.5" stroke-linecap="round" stroke-linejoin="round"/>
<path d="M17.9061 20.8854C19.6815 19.3267 21.9399 18.0033 24.5011 18.0033C28.7249 18.0033 32.1293 21.601 33.8888 23.9243" stroke="black" stroke-width="1.5" stroke-linecap="round" stroke-linejoin="round"/>
<path d="M24.5011 18.0034V12.9607" stroke="black" stroke-width="1.5" stroke-linecap="round" stroke-linejoin="round"/>
<path d="M22.7873 4.22028C25.4653 7.68468 24.2025 13.2979 24.2025 13.2979C24.2025 13.2979 18.5991 13.292 15.9212 9.82763C13.2432 6.36323 14.506 0.75 14.506 0.75C14.506 0.75 20.1093 0.755882 22.7873 4.22028Z" stroke="black" stroke-width="1.5" stroke-linecap="round" stroke-linejoin="round"/>
<path d="M24.2041 13.2979L19.3549 7.02393" stroke="black" stroke-width="1.5" stroke-linecap="round" stroke-linejoin="round"/>
<path d="M25.9504 5.92202C23.6841 8.73746 24.7529 13.2978 24.7529 13.2978C24.7529 13.2978 29.4953 13.2939 31.7616 10.4785C34.0278 7.66304 32.959 3.10266 32.959 3.10266C32.959 3.10266 28.2167 3.10658 25.9504 5.92202Z" stroke="black" stroke-width="1.5" stroke-linecap="round" stroke-linejoin="round"/>
<path d="M24.7524 13.2979L28.8555 8.20032" stroke="black" stroke-width="1.5" stroke-linecap="round" stroke-linejoin="round"/>
</svg>
