<svg width="105" height="102" viewBox="0 0 105 102" fill="none" xmlns="http://www.w3.org/2000/svg">
<g clip-path="url(#clip0_192_105)">
<path d="M43.6015 21.0687C42.4789 20.9376 41.4058 20.5359 40.4812 19.9046C39.8291 19.4619 39.664 18.5683 40.1098 17.9207C40.5555 17.273 41.4553 17.1091 42.1074 17.5518C42.9246 18.1092 43.9152 18.3552 44.9058 18.2322C44.9223 18.2322 44.9388 18.2322 44.9553 18.2322C45.9706 18.0928 46.9199 17.6174 47.6381 16.8959C48.2077 16.3467 49.1157 16.3549 49.6687 16.9205C50.2218 17.4862 50.2136 18.388 49.644 18.9372C48.7525 19.8144 47.6628 20.4621 46.4659 20.8228C46.4412 22.7985 46.986 24.7824 48.1169 26.8402C48.4966 27.5288 48.2407 28.3978 47.539 28.7749C46.8374 29.152 45.9706 28.8979 45.5909 28.201C44.2949 25.8236 43.618 23.438 43.5933 21.0687H43.6015ZM37.7654 28.1764C37.0886 27.7747 36.2053 27.9961 35.7926 28.6683C35.3881 29.3406 35.611 30.2177 36.2878 30.6276C37.1463 31.1195 37.8232 31.8819 38.2029 32.8001C38.5661 33.6773 38.5909 34.6611 38.2607 35.5547C37.9966 36.3007 38.3845 37.1123 39.1275 37.3746C39.8704 37.637 40.6959 37.2517 40.96 36.5138C41.5213 34.9562 41.4801 33.2592 40.8527 31.7262C40.2336 30.2423 39.144 28.9962 37.7489 28.1846L37.7654 28.1764ZM50.7419 38.6535C49.3716 38.0961 47.861 38.0141 46.4329 38.3994C44.9718 38.8011 43.7088 39.7275 42.8916 40.9982C42.4624 41.6622 42.6605 42.5394 43.3291 42.9657C43.9978 43.392 44.881 43.1952 45.3103 42.5312C45.7478 41.8508 46.4246 41.3589 47.2088 41.1457C48.0343 40.9244 48.9011 40.9818 49.6935 41.3097C50.4282 41.5966 51.2619 41.2441 51.5591 40.5063C51.8562 39.7685 51.493 38.9487 50.7501 38.6535H50.7419ZM69.6947 17.9207C69.2489 17.273 68.3492 17.1091 67.6971 17.5518C66.8798 18.1092 65.881 18.3552 64.8987 18.2322C64.8822 18.2322 64.8657 18.2322 64.8492 18.2322C63.8338 18.0928 62.8845 17.6174 62.1664 16.8959C61.5968 16.3467 60.6888 16.3549 60.1357 16.9205C59.5827 17.4862 59.5909 18.388 60.1605 18.9372C61.052 19.8144 62.1416 20.4621 63.3386 20.8228C63.3633 22.7985 62.8185 24.7824 61.6876 26.8402C61.3079 27.5288 61.5638 28.3978 62.2654 28.7749C62.9588 29.152 63.8338 28.8979 64.2136 28.201C65.5178 25.8236 66.1864 23.438 66.2112 21.0687C67.3338 20.9376 68.407 20.5359 69.3315 19.9046C69.9836 19.4619 70.1487 18.5683 69.7029 17.9207H69.6947ZM63.3716 38.3994C61.9435 38.0141 60.4329 38.1043 59.0626 38.6535C58.3279 38.9487 57.9647 39.7767 58.2619 40.5063C58.5591 41.2359 59.3928 41.5966 60.1275 41.3015C60.9117 40.9818 61.7784 40.9244 62.6039 41.1457C63.3881 41.3589 64.065 41.8508 64.5025 42.5312C64.9317 43.1952 65.815 43.392 66.4836 42.9657C67.1522 42.5394 67.3503 41.6622 66.9211 40.9982C66.1039 39.7275 64.8409 38.8011 63.3798 38.3994H63.3716ZM105 32.2345C105 42.564 96.5638 50.9342 86.1546 50.9342C84.5779 50.9342 83.0095 50.7374 81.4824 50.3439C79.2537 52.3115 76.2985 53.2624 73.3268 52.9427C72.914 58.378 68.1428 62.4606 62.6617 62.0507C59.4506 61.813 56.5614 60.0422 54.894 57.3123C52.0544 61.9851 45.9459 63.4772 41.2407 60.6571C38.4836 59.0011 36.7088 56.1317 36.4695 52.9427C30.6499 53.5576 25.4329 49.3684 24.8138 43.5887C24.6569 42.1295 24.8138 40.662 25.2595 39.2684C22.2053 37.3336 20.3562 33.9888 20.348 30.3899C20.3315 26.3401 22.6758 22.6428 26.3574 20.9048C24.6239 15.3547 27.7442 9.46031 33.3327 7.73052C34.348 7.41899 35.4128 7.25503 36.4777 7.25503C36.585 7.25503 36.6923 7.25503 36.7996 7.25503C38.2525 2.00009 43.7253 -1.09057 49.0249 0.352285C51.4765 1.02452 53.5815 2.60675 54.9022 4.77103C57.7419 0.106344 63.8504 -1.3939 68.5555 1.41803C70.7348 2.72152 72.3279 4.81202 73.0048 7.25503C73.1121 7.25503 73.2195 7.25503 73.3268 7.25503C77.6275 7.25503 81.4989 9.83742 83.1334 13.7889C93.394 12.1247 103.077 19.0356 104.761 29.2258C104.926 30.2177 105.008 31.2261 105.008 32.2345H105ZM53.4659 9.87841C53.4659 6.00073 50.3044 2.85269 46.3916 2.85269C43.2631 2.85269 40.5143 4.8858 39.6145 7.86169C41.7937 8.82086 43.1805 10.9851 43.1393 13.3544C43.1227 14.125 42.4871 14.748 41.7029 14.748H41.6699C40.8775 14.7316 40.2501 14.0758 40.2666 13.2888C40.2996 11.8049 39.2595 10.567 37.6664 10.1981C37.2702 10.1325 36.8739 10.0998 36.4777 10.0998C32.2183 10.0998 28.7595 13.5347 28.7513 17.7649C28.7513 18.9044 29.0072 20.0358 29.5025 21.0605C30.1876 22.3886 31.7065 22.9789 33.2914 22.5362C34.0508 22.323 34.8515 22.7657 35.0661 23.5199C35.2808 24.2742 34.835 25.0694 34.0756 25.2825C33.4895 25.4465 32.8869 25.5285 32.2761 25.5285C30.5013 25.5449 28.8091 24.7742 27.6699 23.4298C24.9541 24.6841 23.2206 27.3976 23.2289 30.3735C23.2371 32.9477 24.5331 35.3497 26.6959 36.768C28.3303 35.0136 30.8645 34.4233 33.118 35.2513C33.861 35.5301 34.2324 36.3499 33.9518 37.0877C33.6711 37.8255 32.8456 38.1944 32.1027 37.9157C30.7159 37.391 29.2053 37.9485 28.3303 39.293C26.5638 43.146 28.2725 47.6878 32.1522 49.4421C33.1593 49.893 34.2489 50.1308 35.3551 50.1308C36.0815 50.1308 36.7996 50.0324 37.493 49.8356H37.5095C38.9624 49.4421 39.8621 48.0813 39.7466 46.4417C39.6888 45.6547 40.2914 44.9742 41.0838 44.925C41.8763 44.8758 42.5614 45.4661 42.611 46.2531C42.7843 48.8355 41.4718 51.1309 39.3173 52.1885C39.3669 56.0662 42.5779 59.1732 46.4824 59.124C50.3209 59.0748 53.4164 56.0006 53.4659 52.1885V9.87841ZM78.2136 49.1798C68.7867 44.8185 64.7088 33.7019 69.0921 24.3397C71.2878 19.6505 75.3409 16.0843 80.2855 14.4693C79.006 11.8049 76.2902 10.0998 73.3103 10.0998C72.9058 10.0998 72.493 10.1325 72.0968 10.1981C70.5202 10.5752 69.4883 11.8131 69.5213 13.2806C69.5378 14.0676 68.9105 14.7234 68.118 14.7398H68.085C67.3091 14.7398 66.6652 14.125 66.6487 13.3462C66.5909 10.9769 67.9942 8.86185 70.1735 7.85349C69.0508 4.13978 65.1133 2.02468 61.3657 3.13962C58.3692 4.0332 56.3221 6.76315 56.3221 9.87021V52.1885C56.3798 56.0662 59.5909 59.1732 63.4954 59.1158C67.3256 59.0584 70.4128 55.9924 70.4706 52.1885C68.3162 51.1309 67.0036 48.8273 67.177 46.2531C67.2348 45.4661 67.9199 44.8758 68.7041 44.925C69.4966 44.9824 70.0909 45.6628 70.0414 46.4417C69.9258 48.0649 70.8256 49.4257 72.2702 49.8274C72.2702 49.8274 72.2702 49.8274 72.2784 49.8274H72.2949C72.9883 50.0242 73.7065 50.1226 74.4329 50.1226C75.7536 50.1226 77.0496 49.7947 78.1971 49.147L78.2136 49.1798ZM102.127 32.2345C102.127 23.479 94.9871 16.3876 86.1711 16.3876C77.3551 16.3876 70.2147 23.479 70.2147 32.2345C70.2147 40.99 77.3551 48.0813 86.1711 48.0813C94.9789 48.0731 102.119 40.9818 102.127 32.2345ZM92.5602 72.2327C94.0956 77.4548 90.2654 79.3978 87.723 80.6849C87.3928 80.8488 87.0791 81.0128 86.782 81.1768L86.7489 81.1931L53.3338 98.1549C51.881 98.9009 50.2713 99.2862 48.6369 99.278C46.2926 99.278 43.9812 98.5484 41.6534 97.704L26.6298 92.2523L23.3362 93.1049L24.0131 95.4004C24.5166 97.1137 23.5261 98.9009 21.8008 99.401L13.2902 101.877C11.5732 102.377 9.7737 101.393 9.2619 99.6879L0.132187 68.7321C-0.371351 67.0269 0.619215 65.2316 2.3362 64.7315L10.8551 62.2557C12.5803 61.7556 14.3798 62.7394 14.8834 64.4528L15.3869 66.1743L26.2336 62.6984C29.2466 61.731 32.9117 60.985 37.1628 62.8705L54.6298 70.6259C57.2053 71.7654 58.6581 74.2658 59.1617 76.7334L85.032 67.6992C85.032 67.6992 85.0815 67.6828 85.1062 67.6746C86.5343 67.2729 88.0614 67.4532 89.3492 68.1747C90.9176 69.0519 92.0732 70.5111 92.5602 72.2327ZM21.2395 96.1956L12.118 65.248C12.0933 65.1496 12.0272 65.0676 11.9364 65.0266C11.8456 64.9774 11.7466 64.9692 11.6558 64.9938L3.14516 67.4696C3.0461 67.4942 2.97181 67.5598 2.92228 67.65C2.87275 67.732 2.8645 67.8385 2.88926 67.9287L12.0107 98.8845C12.0768 99.0813 12.2749 99.1878 12.473 99.1305L20.9836 96.6546C21.1817 96.5973 21.2973 96.3923 21.2395 96.1956ZM89.8032 73.0279C89.5308 72.0359 88.8704 71.1833 87.9624 70.6751C87.3515 70.3225 86.6251 70.2242 85.94 70.3963L59.302 79.7011C59.2277 80.4061 59.0626 81.0948 58.8067 81.7506C57.6841 84.6937 55.1334 86.3497 52.1039 86.3497C50.9647 86.3415 49.8421 86.1284 48.7772 85.7185L37.0225 81.3407C36.2796 81.062 35.9081 80.2422 36.1805 79.5044C36.4612 78.7665 37.2867 78.3976 38.0296 78.6682L49.7843 83.0459C51.9883 83.8657 54.9683 83.7509 56.1157 80.7341C56.3633 80.07 56.4871 79.365 56.4789 78.66C56.4789 76.2415 55.2242 73.9953 53.4494 73.2165L35.9824 65.4611C33.2666 64.256 30.6994 64.2396 27.1086 65.3955L16.1876 68.9043L22.5107 90.3586L26.3244 89.3666C26.6051 89.2928 26.9022 89.3092 27.1829 89.4076L42.6275 95.015C46.6228 96.4579 49.3055 96.9826 52.0213 95.6053L85.4282 78.6518C85.7584 78.4796 86.0968 78.3074 86.4187 78.1353C89.2088 76.717 90.6287 75.848 89.8032 73.0279ZM96.9765 35.6694L87.1782 45.4005C86.6169 45.958 85.7088 45.958 85.1475 45.4005L75.3492 35.6694C72.427 32.7673 72.427 28.0617 75.3492 25.1514C78.2713 22.241 83.0096 22.2492 85.94 25.1514L86.1628 25.3727L86.3857 25.1514C89.3079 22.2492 94.0461 22.2492 96.9765 25.1514C99.8987 28.0535 99.8987 32.7591 96.9765 35.6694ZM94.9459 27.1763C93.1381 25.3973 90.2242 25.3973 88.4164 27.1763L87.1782 28.406C86.6169 28.9634 85.7088 28.9634 85.1475 28.406L83.9093 27.1763C82.1098 25.3891 79.1876 25.3891 77.3798 27.1763C75.572 28.9634 75.5803 31.8655 77.3798 33.6609L86.1628 42.3836L94.9459 33.6609C96.7454 31.8737 96.7454 28.9716 94.9459 27.1763Z" fill="#A92F11"/>
</g>
<defs>
<clipPath id="clip0_192_105">
<rect width="105" height="102" fill="white"/>
</clipPath>
</defs>
</svg>
