<svg width="104" height="101" viewBox="0 0 104 101" fill="none" xmlns="http://www.w3.org/2000/svg">
<g clip-path="url(#clip0_192_88)">
<path d="M98.341 33.7649C96.515 33.389 92.6109 33.8665 90.6893 38.3383C90.6771 38.3687 90.665 38.3992 90.6528 38.4297L84.7154 54.3542C83.6998 53.7569 82.5399 53.4399 81.3334 53.4399C80.0496 53.4399 78.7984 53.8077 77.7198 54.5025L62.4935 64.277C56.7167 67.7959 53.6393 72.416 52.0001 76.323C50.3609 72.416 47.2835 67.7959 41.5067 64.277L26.2824 54.5025C25.2018 53.8077 23.9526 53.4399 22.6668 53.4399C21.4603 53.4399 20.3004 53.7589 19.2848 54.3542C19.2848 54.3542 13.3231 38.3687 13.3109 38.3383C11.3893 33.8645 7.48526 33.389 5.65917 33.7649C1.9501 34.4557 -0.404115 37.6516 0.0569791 41.3736C0.0671354 41.4549 6.53464 67.4769 6.53464 67.4769C8.24089 74.3035 12.8803 81.1909 18.9435 85.8984C18.9639 85.9147 18.9862 85.9309 19.0065 85.9451L29.2704 93.2897V96.9346C29.2704 99.1756 31.0924 100.998 33.3329 100.998H70.6673C72.9078 100.998 74.7298 99.1756 74.7298 96.9346V93.2897L84.9937 85.9451C85.016 85.9289 85.0364 85.9147 85.0567 85.8984C91.1199 81.1909 95.7573 74.3035 97.4656 67.4749C97.4656 67.4749 103.931 41.4549 103.941 41.3736C104.402 37.6516 102.048 34.4557 98.339 33.7649H98.341ZM49.9465 86.9955C49.9404 87.0565 49.9384 96.9346 49.9384 96.9346H33.3329V92.2454C33.3329 91.5892 33.016 90.9736 32.4839 90.5937L21.4034 82.6639C16.1303 78.5579 11.9439 72.3632 10.4773 66.4916L4.07885 40.7621C3.93464 39.218 4.8426 38.0416 6.41885 37.7552C6.45948 37.747 6.43917 37.7552 6.46354 37.747C6.85354 37.6861 8.54354 37.5744 9.56323 39.8986L16.3131 58.0031C15.5412 60.2786 16.0409 62.8751 17.8203 64.7463C17.8873 64.8174 28.3015 73.0418 28.3015 73.0418C29.181 73.7366 30.4587 73.5863 31.1534 72.7045C31.8481 71.8228 31.6978 70.5469 30.8162 69.852L20.6803 61.8552C19.7926 60.8272 19.8393 59.2486 20.8082 58.2774C21.3079 57.7796 21.9681 57.5033 22.6709 57.5033C23.1746 57.5033 23.6642 57.6476 24.0887 57.9219C24.0887 57.9219 39.3637 67.7268 39.3779 67.737C44.1737 70.6525 47.4095 74.7545 48.9918 79.9252C50.1943 83.8545 49.9506 86.9711 49.9485 86.9955H49.9465ZM99.9234 40.7641L93.5249 66.4916C92.0564 72.3652 87.8699 78.5579 82.5968 82.666L71.5164 90.5957C70.9842 90.9777 70.6673 91.5933 70.6673 92.2475V96.9366H54.0618C54.0618 96.9366 54.0598 87.0585 54.0537 86.9976C54.0435 86.8756 53.0868 74.7525 64.6243 67.737C64.6385 67.7289 79.9156 57.9198 79.9156 57.9198C80.3381 57.6476 80.8296 57.5033 81.3314 57.5033C82.0342 57.5033 82.6964 57.7776 83.194 58.2754C84.1629 59.2465 84.2117 60.8252 83.324 61.8532L73.1881 69.85C72.3065 70.5448 72.1562 71.8228 72.8509 72.7025C73.5456 73.5842 74.8232 73.7346 75.7028 73.0398C75.7028 73.0398 86.117 64.8154 86.184 64.7443C87.9634 62.8731 88.461 60.2786 87.6912 58.0011L94.441 39.8966C95.4607 37.5723 97.1528 37.6841 97.5407 37.745C97.5631 37.7511 97.5448 37.745 97.5854 37.7531C99.1617 38.0416 100.07 39.216 99.9254 40.7621L99.9234 40.7641Z" fill="#A92F11"/>
<path d="M24.3079 43.8116H36.1277V52.5886C36.1277 54.8296 37.9498 56.652 40.1902 56.652H42.7618C43.883 56.652 44.793 55.7418 44.793 54.6203C44.793 53.4988 43.883 52.5886 42.7618 52.5886H40.1902C40.1902 52.5886 40.1984 41.658 40.1923 41.5971C40.2451 38.3606 42.8918 35.7437 46.1377 35.7437H57.8601C61.108 35.7437 63.7548 38.3606 63.8055 41.5971C63.7994 41.658 63.8076 52.5886 63.8076 52.5886H61.2685C60.1473 52.5886 59.2373 53.4988 59.2373 54.6203C59.2373 55.7418 60.1473 56.652 61.2685 56.652H63.8076C66.048 56.652 67.8701 54.8296 67.8701 52.5886V43.8116H79.6899C82.0035 43.8116 83.8865 41.9282 83.8865 39.6141V28.8542C83.8865 24.226 80.7299 20.3211 76.4562 19.1793C78.3229 17.1415 79.4644 14.4271 79.4644 11.4507C79.4665 5.13818 74.3294 0 68.0163 0C61.7032 0 56.5662 5.13818 56.5662 11.4527C56.5662 12.2979 56.6616 13.1207 56.8363 13.9151C55.3657 13.2264 53.7285 12.8404 51.9999 12.8404C50.2713 12.8404 48.6341 13.2264 47.1635 13.9151C47.3382 13.1207 47.4337 12.2979 47.4337 11.4527C47.4337 5.13818 42.2966 0 35.9835 0C29.6704 0 24.5334 5.13818 24.5334 11.4527C24.5334 14.4292 25.6749 17.1435 27.5416 19.1813C23.2679 20.3231 20.1113 24.226 20.1113 28.8563V39.6162C20.1113 41.9303 21.9943 43.8137 24.3079 43.8137V43.8116ZM79.826 28.8542V39.6141C79.826 39.6873 79.7651 39.7482 79.6919 39.7482H67.6812C66.9398 35.9997 64.1001 32.9969 60.4418 32.0196C62.3085 29.9818 63.4501 27.2675 63.4501 24.291C63.4501 23.8217 63.4176 23.3605 63.3627 22.9054H73.8765C77.1569 22.9054 79.826 25.5751 79.826 28.8563V28.8542ZM68.0163 4.06341C72.089 4.06341 75.404 7.37914 75.404 11.4527C75.404 15.5263 72.091 18.842 68.0163 18.842C63.9416 18.842 60.6287 15.5263 60.6287 11.4527C60.6287 7.37914 63.9437 4.06341 68.0163 4.06341ZM59.3876 24.291C59.3876 28.3646 56.0726 31.6803 51.9999 31.6803C47.9273 31.6803 44.6123 28.3646 44.6123 24.291C44.6123 20.2175 47.9273 16.9017 51.9999 16.9017C56.0726 16.9017 59.3876 20.2175 59.3876 24.291ZM35.9835 4.06341C40.0562 4.06341 43.3712 7.37914 43.3712 11.4527C43.3712 15.5263 40.0562 18.842 35.9835 18.842C31.9109 18.842 28.5959 15.5263 28.5959 11.4527C28.5959 7.37914 31.9088 4.06341 35.9835 4.06341ZM24.1738 28.8542C24.1738 25.573 26.8429 22.9034 30.1234 22.9034H40.6371C40.5823 23.3585 40.5498 23.8197 40.5498 24.289C40.5498 27.2655 41.6913 29.9778 43.558 32.0176C39.8998 32.9949 37.0601 35.9977 36.3187 39.7462H24.3079C24.2348 39.7462 24.1738 39.6873 24.1738 39.6121V28.8522V28.8542Z" fill="#A92F11"/>
<path d="M52 56.65C53.1218 56.65 54.0312 55.7403 54.0312 54.6183C54.0312 53.4962 53.1218 52.5865 52 52.5865C50.8782 52.5865 49.9688 53.4962 49.9688 54.6183C49.9688 55.7403 50.8782 56.65 52 56.65Z" fill="#A92F11"/>
</g>
<defs>
<clipPath id="clip0_192_88">
<rect width="104" height="101" fill="white"/>
</clipPath>
</defs>
</svg>
