<svg width="114" height="117" viewBox="0 0 114 117" fill="none" xmlns="http://www.w3.org/2000/svg">
<g clip-path="url(#clip0_192_126)">
<path d="M4.20551 106.034H16.3912C18.7094 106.034 20.5967 104.142 20.5967 101.817V100.192H24.4535C25.2125 100.192 25.9511 100.439 26.5665 100.871L46.9991 115.539C48.3326 116.506 49.9122 117 51.4918 117C52.497 117 53.5023 116.794 54.4459 116.403L102.963 96.3239C106.82 94.7191 108.728 90.2548 107.23 86.3458C105.733 82.4369 101.301 80.4207 97.3831 81.8403L77.4224 89.0615C77.3403 84.7617 73.8323 81.2848 69.5242 81.2848H52.5586C51.6764 81.2848 50.8148 80.9762 50.1378 80.4207L35.4699 68.4265C34.0543 67.2744 32.2901 66.6367 30.4643 66.6367H20.5762V64.4559C20.5762 62.1311 18.6889 60.2384 16.3707 60.2384H4.20551C1.88735 60.2384 0 62.1311 0 64.4559V101.817C0 104.142 1.88735 106.034 4.20551 106.034ZM32.885 71.6154L47.553 83.6096C48.9685 84.7617 50.7533 85.3995 52.5586 85.3995H69.5242C71.6372 85.3995 73.3399 87.107 73.3399 89.2261C73.3399 91.3451 71.6372 93.0527 69.5242 93.0527H48.7634C47.6351 93.0527 46.7119 93.9785 46.7119 95.11C46.7119 96.2416 47.6351 97.1674 48.7634 97.1674H69.5242C72.0885 97.1674 74.3452 95.933 75.8017 94.0197L98.7986 85.7081C100.645 85.0497 102.717 85.9961 103.435 87.8271C104.153 89.6581 103.25 91.7772 101.425 92.5178L52.9073 112.597C51.738 113.07 50.4251 112.926 49.3993 112.186L28.9462 97.5171C27.6127 96.5707 26.0536 96.0564 24.433 96.0564H20.5762V70.7308H30.4643C31.3464 70.7308 32.208 71.0393 32.885 71.5948V71.6154ZM4.20551 64.3736L16.4733 64.4765V101.837C16.4733 101.837 16.4322 101.94 16.3707 101.94L4.10293 101.837L4.20551 64.3736Z" fill="#A92F11"/>
<path d="M10.2985 70.4839C9.17023 70.4839 8.24707 71.4097 8.24707 72.5412V74.9277C8.24707 76.0592 9.17023 76.985 10.2985 76.985C11.4268 76.985 12.35 76.0592 12.35 74.9277V72.5412C12.35 71.4097 11.4268 70.4839 10.2985 70.4839Z" fill="#A92F11"/>
<path d="M106.697 7.32413C97.4448 -1.9544 82.6537 -2.40701 72.8682 5.98687C63.0827 -2.40701 48.2917 -1.9544 39.019 7.32413C29.2951 17.0758 29.2951 32.9584 39.019 42.7101L71.4117 75.1952C71.8015 75.5861 72.3349 75.7919 72.8682 75.7919C73.4016 75.7919 73.9145 75.5861 74.3248 75.1952L106.717 42.7101C111.436 37.9783 114.021 31.7034 114.021 25.0171C114.021 18.3308 111.415 12.056 106.717 7.32413H106.697ZM103.784 39.7887L72.8477 70.8131L41.9116 39.7887C33.7878 31.6417 33.7878 18.372 41.9116 10.225C45.9735 6.15146 51.3073 4.11471 56.6617 4.11471C62.016 4.11471 67.3498 6.15146 71.4117 10.225C72.2118 11.0273 73.5042 11.0273 74.3043 10.225C82.4281 2.07796 95.66 2.07796 103.784 10.225C107.723 14.175 109.897 19.4212 109.897 25.0171C109.897 30.613 107.723 35.8592 103.784 39.8093V39.7887Z" fill="#A92F11"/>
<path d="M101.425 12.5908C98.1219 9.27853 93.7317 7.44751 89.0339 7.44751C87.9056 7.44751 86.9824 8.37331 86.9824 9.50483C86.9824 10.6364 87.9056 11.5622 89.0339 11.5622C92.624 11.5622 95.9884 12.9611 98.5117 15.4916C101.055 18.0222 102.45 21.4167 102.45 24.9965C102.45 26.128 103.374 27.0538 104.502 27.0538C105.63 27.0538 106.553 26.128 106.553 24.9965C106.553 20.3058 104.728 15.9031 101.425 12.5702V12.5908Z" fill="#A92F11"/>
</g>
<defs>
<clipPath id="clip0_192_126">
<rect width="114" height="117" fill="white"/>
</clipPath>
</defs>
</svg>
