<svg width="105" height="105" viewBox="0 0 105 105" fill="none" xmlns="http://www.w3.org/2000/svg">
<path d="M99.2867 35.6072C97.4429 35.2285 93.5009 35.709 91.5608 40.2246C91.5477 40.2553 91.5352 40.2863 91.5233 40.3177L85.5295 56.3917C84.5043 55.7894 83.3337 55.4682 82.1143 55.4682C80.8174 55.4682 79.5552 55.8396 78.4666 56.5404L63.0946 66.4073C57.2621 69.9593 54.1548 74.6234 52.5 78.566C50.8452 74.6234 47.7379 69.9593 41.9055 66.4073L26.5359 56.542C25.4451 55.8396 24.1826 55.4684 22.8857 55.4684C21.6665 55.4684 20.4959 55.7896 19.4705 56.3919C19.4705 56.3919 13.4523 40.2555 13.4392 40.2248C11.4992 35.7094 7.55776 35.2291 5.71329 35.6074C1.96856 36.3057 -0.408296 39.5316 0.0582567 43.288C0.0685106 43.3697 6.59758 69.6365 6.59758 69.6365C8.32106 76.5275 13.0042 83.4788 19.1252 88.2313C19.1465 88.2479 19.1678 88.2637 19.1896 88.2793L29.5516 95.6931V99.3724C29.5516 101.634 31.3915 103.474 33.6531 103.474H71.3469C73.6085 103.474 75.4485 101.634 75.4485 99.3724V95.6931L85.8104 88.2793C85.8322 88.2637 85.8537 88.2477 85.8748 88.2313C91.9958 83.4788 96.6788 76.5275 98.4031 69.634C98.4031 69.634 104.932 43.3697 104.942 43.288C105.408 39.5312 103.031 36.3055 99.2867 35.6072ZM50.4263 89.3391C50.4207 89.4005 50.4179 99.3722 50.4179 99.3722H33.6531V94.6386C33.6531 93.9768 33.3338 93.3558 32.7955 92.9707L21.6091 84.9671C16.2849 80.8216 12.059 74.5692 10.5769 68.6435L4.11655 42.673C3.97053 41.1136 4.88764 39.9278 6.47864 39.6368C6.51904 39.6294 6.49997 39.6348 6.52314 39.6288C6.91627 39.5681 8.62355 39.4547 9.65243 41.8008L16.4666 60.0747C15.6881 62.3716 16.1909 64.9919 17.9878 66.8806C18.0549 66.9514 28.5697 75.2529 28.5697 75.2529C29.4585 75.9543 30.7484 75.8017 31.4498 74.9125C32.1511 74.0233 31.999 72.7338 31.1095 72.0324L20.8751 63.9609C19.9787 62.9232 20.0269 61.329 21.0045 60.3501C21.508 59.8469 22.1761 59.5696 22.8859 59.5696C23.3939 59.5696 23.8883 59.715 24.3182 59.9919C24.3182 59.9919 39.7392 69.8899 39.7536 69.8988C44.5957 72.8418 47.8614 76.9811 49.4601 82.2014C50.6746 86.167 50.4281 89.3143 50.4263 89.3391ZM100.883 42.673L94.4235 68.641C92.941 74.5694 88.715 80.8216 83.3907 84.9671L72.2043 92.9707C71.666 93.3556 71.3467 93.9768 71.3467 94.6386V99.3722H54.582C54.582 99.3722 54.5791 89.4005 54.5736 89.3391C54.5625 89.2163 53.5974 76.9789 65.2462 69.8988C65.2606 69.8902 80.6841 59.9904 80.6841 59.9904C81.1117 59.7152 81.6061 59.5696 82.1141 59.5696C82.8239 59.5696 83.492 59.8469 83.9945 60.3491C84.9729 61.329 85.0213 62.9232 84.1249 63.9609L73.8905 72.0324C73.0011 72.7338 72.8489 74.0233 73.5503 74.9125C74.2514 75.8019 75.5412 75.9541 76.4304 75.2529C76.4304 75.2529 86.9451 66.9514 87.0122 66.8806C88.8089 64.9921 89.3117 62.3722 88.5333 60.0749L95.3476 41.8006C96.3769 39.4545 98.085 39.5677 98.4769 39.6286C98.4999 39.6344 98.481 39.629 98.5214 39.6366C100.112 39.9278 101.029 41.1138 100.883 42.673Z" fill="#A92F11"/>
<path d="M24.5417 45.7484H36.4756V54.6067C36.4756 56.8683 38.3155 58.7083 40.5771 58.7083H43.1732C44.3057 58.7083 45.224 57.7902 45.224 56.6575C45.224 55.5249 44.3057 54.6067 43.1732 54.6067H40.5771C40.5771 54.6067 40.5851 43.5739 40.5796 43.513C40.6325 40.2468 43.3043 37.6056 46.5829 37.6056H58.4169C61.6955 37.6056 64.3672 40.2468 64.4201 43.513C64.4148 43.5739 64.4226 54.6067 64.4226 54.6067H61.86C60.7275 54.6067 59.8092 55.5249 59.8092 56.6575C59.8092 57.7902 60.7275 58.7083 61.86 58.7083H64.4226C66.6842 58.7083 68.5242 56.8683 68.5242 54.6067V45.7484H80.4581C82.7941 45.7484 84.6944 43.8479 84.6944 41.5121V30.6522C84.6944 25.9801 81.507 22.0397 77.193 20.8874C79.0781 18.8296 80.2306 16.0902 80.2306 13.0862C80.2306 6.71197 75.0448 1.52637 68.6708 1.52637C62.2966 1.52637 57.1108 6.71218 57.1108 13.0862C57.1108 13.9393 57.2063 14.7701 57.3827 15.5711C55.8983 14.8763 54.2442 14.4859 52.4998 14.4859C50.7554 14.4859 49.1014 14.8765 47.6169 15.5711C47.793 14.7701 47.8888 13.9393 47.8888 13.0862C47.8888 6.71197 42.703 1.52637 36.3287 1.52637C29.9547 1.52637 24.7689 6.71218 24.7689 13.0862C24.7689 16.0902 25.9214 18.8296 27.8065 20.8874C23.4925 22.0397 20.3052 25.9801 20.3052 30.6522V41.5121C20.3054 43.8481 22.2058 45.7484 24.5417 45.7484ZM80.593 30.6522V41.5121C80.593 41.5863 80.5325 41.6468 80.4583 41.6468H68.3312C67.5827 37.8631 64.7163 34.8329 61.0228 33.8463C62.9077 31.7887 64.06 29.0495 64.06 26.0455C64.06 25.5716 64.028 25.1054 63.9723 24.6463H74.5871C77.8987 24.6465 80.593 27.3406 80.593 30.6522ZM68.671 5.62772C72.7836 5.62772 76.1293 8.97357 76.1293 13.0862C76.1293 17.1988 72.7836 20.5447 68.671 20.5447C64.5584 20.5447 61.2125 17.1988 61.2125 13.0862C61.2125 8.97357 64.5586 5.62772 68.671 5.62772ZM59.9585 26.0457C59.9585 30.1583 56.6126 33.5042 52.5 33.5042C48.3873 33.5042 45.0415 30.1583 45.0415 26.0457C45.0415 21.9331 48.3873 18.5872 52.5 18.5872C56.6126 18.5872 59.9585 21.9331 59.9585 26.0457ZM36.329 5.62772C40.4416 5.62772 43.7874 8.97357 43.7874 13.0862C43.7874 17.1988 40.4416 20.5447 36.329 20.5447C32.2163 20.5447 28.8707 17.1988 28.8707 13.0862C28.8707 8.97357 32.2163 5.62772 36.329 5.62772ZM24.4069 30.6522C24.4069 27.3406 27.1013 24.6465 30.4127 24.6465H41.0275C40.9719 25.1056 40.9397 25.5718 40.9397 26.0457C40.9397 29.0495 42.0921 31.7887 43.9769 33.8465C40.2835 34.8331 37.4171 37.8631 36.6686 41.647H24.5417C24.4674 41.647 24.4069 41.5865 24.4069 41.5123V30.6522Z" fill="#A92F11"/>
<path d="M52.5 58.7076C53.6326 58.7076 54.5508 57.7895 54.5508 56.6569C54.5508 55.5242 53.6326 54.6061 52.5 54.6061C51.3674 54.6061 50.4492 55.5242 50.4492 56.6569C50.4492 57.7895 51.3674 58.7076 52.5 58.7076Z" fill="#A92F11"/>
</svg>
