<svg width="143" height="134" viewBox="0 0 143 134" fill="none" xmlns="http://www.w3.org/2000/svg">
<g clip-path="url(#clip0_192_137)">
<path d="M142.474 106.442L133.308 97.317L132.485 84.7897C132.382 80.8301 130.759 77.0639 127.947 74.2763L113.717 60.1106C112.265 58.6769 109.933 58.6769 108.482 60.1106L107.876 60.7136C106.196 62.3862 105.179 64.5935 104.984 66.9374L103.395 65.3559V27.0913C103.407 22.3694 101.624 17.8067 98.3892 14.3478V1.77498C98.3777 0.796468 97.5776 0 96.5947 0C95.6117 0 94.8116 0.796468 94.8116 1.77498V15.0532C94.8116 15.5197 94.9945 15.9749 95.3259 16.3048C98.2063 19.1607 99.8293 23.0407 99.8179 27.0913V68.701C99.7036 70.567 98.0805 71.9893 96.206 71.8641C94.4915 71.7617 93.1314 70.3964 93.0285 68.701V47.9018C93.0285 46.9233 92.2284 46.1269 91.2454 46.1269C90.2625 46.1269 89.4624 46.9233 89.4624 47.9018V74.2308C89.4052 76.0399 87.8965 77.4735 86.0677 77.428C84.1932 77.428 82.673 75.9944 82.673 74.2308V47.9018C82.7187 46.9233 81.9529 46.0927 80.9699 46.0586C79.9869 46.0131 79.1526 46.7754 79.1183 47.7539C79.1183 47.8108 79.1183 47.8563 79.1183 47.9132V77.5646C79.1183 79.3282 77.5981 80.7504 75.7236 80.7504C73.8491 80.7504 72.3289 79.3168 72.3289 77.5646V47.9132C72.3746 46.9347 71.6088 46.1041 70.6258 46.07C69.6429 46.0245 68.8085 46.7868 68.7742 47.7653C68.7742 47.8222 68.7742 47.8677 68.7742 47.9246V74.2535C68.6599 76.1196 67.0368 77.5418 65.1623 77.4167C63.4478 77.3143 62.0877 75.9489 61.9848 74.2535V46.0245C61.9848 45.9676 61.9848 45.8993 61.9848 45.8424V38.2646C62.0305 37.2861 61.2647 36.4555 60.2817 36.4213C59.2988 36.3872 58.4644 37.1381 58.4301 38.1167C58.4301 38.1736 58.4301 38.2191 58.4301 38.276V48.5276C58.4301 52.0776 55.5383 54.9563 51.9722 54.9563L50.9778 54.8083V34.7829C50.9778 31.7108 52.1665 28.7525 54.3039 26.5451L63.1164 16.5551C63.4021 16.2366 63.5621 15.8156 63.5621 15.3832V1.77498C63.5621 0.796468 62.762 0 61.779 0C60.7961 0 59.996 0.796468 59.996 1.77498V14.6891L51.675 24.1216C48.9318 26.9889 47.4002 30.8005 47.4116 34.7601V49.1307C46.3029 49.4265 45.2856 50.0068 44.4741 50.8146L14.9163 80.2384C11.5445 83.5722 9.57851 88.0552 9.39563 92.7771L0.468844 101.663C-0.194093 102.38 -0.159803 103.507 0.571713 104.178C1.25751 104.804 2.30906 104.804 2.99486 104.178L12.436 94.7797C12.756 94.4497 12.9389 94.0059 12.9503 93.5394C12.9389 89.4888 14.5505 85.6089 17.4423 82.753L47.0001 53.3292C47.1259 53.204 47.2745 53.0903 47.423 52.9879V54.797C47.423 56.8337 49.0804 58.4949 51.1378 58.4949H51.4235L37.0332 72.8199C36.3703 73.5367 36.4046 74.6632 37.1361 75.3345C37.8219 75.9603 38.8734 75.9603 39.5592 75.3345L58.2701 56.7085C58.3272 56.6516 58.3958 56.5947 58.4644 56.5378V66.0727L44.3598 80.1019C43.6969 80.8187 43.7426 81.9451 44.4627 82.6165C45.1485 83.2422 46.2 83.2422 46.8858 82.6165L58.4644 71.0904V74.2649C58.4644 75.9603 59.1159 77.5873 60.2932 78.8162L51.6864 87.3953C51.1263 87.9642 51.0006 88.8289 51.4007 89.523C51.4807 89.6595 51.5721 89.796 51.6864 89.9098C52.3836 90.6039 53.5152 90.6039 54.201 89.9098L63.425 80.7277C65.3909 81.2966 67.5054 81.0008 69.2314 79.9085C69.6314 80.9553 70.2829 81.8769 71.1287 82.6165L57.63 96.0312C57.63 96.0312 57.55 96.1223 57.5043 96.1678L52.1322 101.515C51.4464 102.221 51.4692 103.347 52.1779 104.03C52.8637 104.69 53.961 104.69 54.6582 104.03L61.9391 96.7822C64.4651 94.279 68.5456 94.279 71.0716 96.7822L71.6774 97.59L57.4471 111.756C55.264 113.918 52.3265 115.158 49.2518 115.215L35.936 116.079C35.5016 116.102 35.1016 116.284 34.793 116.591L25.1461 126.195C24.4489 126.889 24.4489 128.004 25.1461 128.698C25.4776 129.028 25.9348 129.221 26.4148 129.221C26.8834 129.221 27.3406 129.039 27.6721 128.709L36.8389 119.584L49.4233 118.765C53.4009 118.674 57.1842 117.047 59.9845 114.248L74.2148 100.082C74.2948 100.002 74.3748 99.9112 74.4549 99.8202L93.8629 119.129C97.2119 122.474 101.715 124.442 106.459 124.613L115.374 133.511C116.071 134.205 117.203 134.205 117.889 133.511C118.574 132.817 118.586 131.69 117.889 131.008L108.448 121.609C108.116 121.279 107.659 121.086 107.19 121.097C103.121 121.097 99.2235 119.504 96.3661 116.626L69.1971 89.5571L73.9977 84.7783L86.3991 97.1235C87.0964 97.8062 88.2165 97.8062 88.9252 97.1235C89.611 96.4295 89.611 95.3144 88.9252 94.609L78.181 83.9136C80.0898 83.2422 81.61 81.7745 82.3301 79.8857C83.0502 80.3522 83.8503 80.6708 84.6961 80.8415L93.7257 89.8302C94.4458 90.4901 95.5774 90.4446 96.2518 89.7278C96.8804 89.0451 96.8804 87.9983 96.2518 87.3156L89.2109 80.3067C91.4512 79.2713 92.9371 77.0981 93.1085 74.6404L101.052 82.5482C101.761 83.2309 102.893 83.2081 103.578 82.5027C104.241 81.82 104.241 80.7277 103.578 80.0336L98.652 75.1297C100.961 74.4242 102.733 72.5468 103.304 70.2029L109.728 76.6088C109.728 76.6088 109.819 76.6885 109.865 76.734L115.237 82.0817C115.9 82.7985 117.031 82.844 117.763 82.1841C118.483 81.5242 118.529 80.3977 117.866 79.6695C117.831 79.6354 117.797 79.6013 117.763 79.5671L110.471 72.3193C107.967 69.8161 107.967 65.7541 110.471 63.2509L111.282 62.6479L125.512 76.8136C127.696 78.9868 128.953 81.911 129.01 84.9831L129.867 98.2386C129.89 98.671 130.073 99.0692 130.382 99.3764L140.028 108.957C140.726 109.651 141.857 109.651 142.543 108.957C143.229 108.263 143.24 107.136 142.543 106.454L142.474 106.442Z" fill="#A92F11"/>
</g>
<defs>
<clipPath id="clip0_192_137">
<rect width="143" height="134" fill="white"/>
</clipPath>
</defs>
</svg>
