<svg width="99" height="103" viewBox="0 0 99 103" fill="none" xmlns="http://www.w3.org/2000/svg">
<g clip-path="url(#clip0_192_133)">
<path d="M34.1456 60.7104V72.0984C34.1456 73.0411 34.9044 73.8193 35.8566 73.8193C36.8088 73.8193 37.5676 73.0561 37.5676 72.0984V60.0819C37.5676 59.6779 37.4188 59.2888 37.1659 58.9746L20.6957 39.3862C19.922 38.4584 20.041 37.0966 20.9486 36.3185C21.7818 35.6151 22.9869 35.6301 23.7903 36.3634L38.133 49.3375C38.4454 49.6218 38.8472 49.7715 39.2786 49.7715H59.766C60.1826 49.7715 60.5992 49.6218 60.9116 49.3375L75.2543 36.3634C76.147 35.5553 77.5158 35.6301 78.3192 36.528C79.0334 37.336 79.0631 38.5631 78.3638 39.3862L61.8936 58.9746C61.6258 59.2888 61.4919 59.6779 61.4919 60.0819V72.0984C61.4919 73.0411 62.2507 73.8193 63.2029 73.8193C64.1551 73.8193 64.9139 73.0561 64.9139 72.0984V60.7104L80.9824 41.6159C82.9761 39.2515 82.6785 35.7049 80.3278 33.6997C78.2002 31.889 75.0609 31.9339 72.9928 33.8194L59.1411 46.3596H57.1623C60.9414 42.1246 60.5992 35.6151 56.4035 31.8142C52.2078 28.0132 45.7209 28.3574 41.9418 32.5774C38.4306 36.498 38.4306 42.4389 41.9418 46.3596H39.963L26.1114 33.8194C23.8201 31.7394 20.294 31.9339 18.2259 34.2384C16.3661 36.3185 16.3066 39.4759 18.1069 41.6159L34.1754 60.7104H34.1456ZM42.6709 39.4759C42.6709 35.69 45.7209 32.6073 49.5 32.6073C53.2791 32.6073 56.3291 35.675 56.3291 39.4759C56.3291 43.2769 53.2791 46.3446 49.5 46.3446C45.7358 46.3446 42.6709 43.2619 42.6709 39.4759ZM42.284 17.179L41.1682 23.7484C41.0045 24.6762 41.6294 25.574 42.5667 25.7237C42.9387 25.7835 43.3106 25.7237 43.6528 25.5591L49.5149 22.4614L55.3769 25.5591C56.2101 25.993 57.2367 25.6788 57.683 24.8408C57.8616 24.5115 57.9211 24.1225 57.8467 23.7484L56.7308 17.179L61.477 12.5251C62.1465 11.8666 62.1614 10.7742 61.5068 10.1008C61.239 9.83147 60.8968 9.65189 60.5248 9.607L53.9784 8.64928L51.0473 2.67848C50.5415 1.82551 49.4554 1.54119 48.6073 2.04998C48.3544 2.19962 48.1312 2.42409 47.9824 2.67848L45.0514 8.64928L38.505 9.607C37.5676 9.74168 36.9279 10.6096 37.0618 11.5524C37.1213 11.9265 37.2849 12.2707 37.5676 12.54L42.3138 17.194L42.284 17.179ZM46.4202 11.9115C46.9707 11.8367 47.4617 11.4776 47.6997 10.9688L49.5 7.30248L51.3003 10.9688C51.5532 11.4776 52.0293 11.8217 52.5798 11.9115L56.5969 12.4951L53.6957 15.3384C53.294 15.7274 53.1154 16.2961 53.2047 16.8647L53.8891 20.8902L50.2885 18.9897C49.7976 18.7203 49.2024 18.7203 48.6966 18.9897L45.096 20.8902L45.7804 16.8647C45.8697 16.3111 45.6912 15.7424 45.2894 15.3384L42.3882 12.4951L46.4053 11.9115H46.4202ZM68.2764 12.0163H75.1055C76.0428 12.0163 76.8165 12.7795 76.8165 13.7372C76.8165 14.6949 76.0577 15.4581 75.1055 15.4581H68.2764C67.339 15.4581 66.5654 14.6949 66.5654 13.7372C66.5654 12.7795 67.3242 12.0163 68.2764 12.0163ZM63.4409 6.09037C62.9202 5.29725 63.1285 4.23478 63.917 3.71103L69.0352 0.284177C69.8237 -0.239577 70.8801 -0.0151111 71.4008 0.778002C71.9067 1.55615 71.6984 2.60366 70.9247 3.14238L65.8066 6.56923C65.018 7.09298 63.9617 6.88348 63.4409 6.09037ZM63.917 23.7334C63.1434 23.1947 62.9351 22.1322 63.4707 21.3541C63.9914 20.5759 65.0329 20.3664 65.8215 20.8752L70.9396 24.302C71.7281 24.8258 71.9513 25.8883 71.4306 26.6814C70.9098 27.4745 69.8535 27.699 69.0649 27.1752C69.0649 27.1752 69.05 27.1752 69.0352 27.1602L63.917 23.7334ZM22.1835 13.7222C22.1835 12.7795 22.9423 12.0013 23.8945 12.0013H30.7236C31.661 12.0013 32.4346 12.7645 32.4346 13.7222C32.4346 14.6799 31.6758 15.4431 30.7236 15.4431H23.8945C22.9572 15.4431 22.1835 14.6799 22.1835 13.7222ZM26.3643 3.14238C25.5906 2.60366 25.3823 1.54119 25.9179 0.763038C26.4387 -0.0151111 27.4802 -0.224613 28.2687 0.284177L33.3868 3.71103C34.1754 4.23478 34.3986 5.29725 33.8778 6.09037C33.3571 6.88348 32.3007 7.10795 31.5122 6.58419C31.5122 6.58419 31.4973 6.58419 31.4824 6.56923L26.3643 3.14238ZM35.5591 21.3541C36.0798 22.1472 35.8715 23.2096 35.083 23.7334L29.9648 27.1602C29.1912 27.699 28.1199 27.4895 27.5992 26.7113C27.0784 25.9332 27.2719 24.8557 28.0455 24.332C28.0455 24.332 28.0604 24.332 28.0753 24.317L33.1934 20.8902C33.982 20.3664 35.0383 20.5759 35.5591 21.369V21.3541ZM87.8115 78.9969C91.6204 74.7919 91.3079 68.2675 87.1271 64.4515C82.9464 60.6207 76.4594 60.9349 72.6655 65.1399C69.1096 69.0755 69.1096 75.0613 72.6655 78.9969C67.7705 79.3262 63.5748 82.6034 62.0573 87.2872C60.5248 86.4492 58.8287 85.9554 57.0879 85.8656C60.8968 81.6606 60.5843 75.1361 56.4035 71.3202C52.2227 67.4893 45.7358 67.8036 41.9418 72.0086C38.3859 75.9442 38.3859 81.9449 41.9418 85.8656C40.2011 85.9704 38.505 86.4642 36.9725 87.2872C35.4549 82.6034 31.2592 79.3112 26.3643 78.9969C30.1731 74.7919 29.8607 68.2675 25.6799 64.4515C21.4991 60.6207 15.0122 60.9349 11.2182 65.1399C7.66231 69.0755 7.66231 75.0763 11.2182 78.9969C4.90983 79.401 0 84.6385 0 90.9834V94.4103C0 95.353 0.758792 96.1312 1.711 96.1312C2.66321 96.1312 3.422 95.368 3.422 94.4103V90.9834C3.422 86.2397 7.24572 82.4088 11.9621 82.3939H25.6204C29.8012 82.4088 33.3422 85.4765 34.0117 89.6217C31.9139 91.8364 30.7534 94.7844 30.7534 97.8521V101.279C30.7534 102.222 31.5122 103 32.4644 103C33.4166 103 34.1754 102.237 34.1754 101.279V97.8521C34.1754 93.1084 37.9991 89.2775 42.7155 89.2625H56.3738C61.0902 89.2625 64.899 93.1084 64.9139 97.8521V101.279C64.9139 102.222 65.6727 103 66.6249 103C67.5771 103 68.3359 102.237 68.3359 101.279V97.8521C68.3359 94.7844 67.1605 91.8514 65.0775 89.6217C65.7322 85.4765 69.2881 82.4088 73.4689 82.3939H87.1271C91.8436 82.3939 95.6524 86.2397 95.6673 90.9834V94.4103C95.6673 95.353 96.426 96.1312 97.3783 96.1312C98.3305 96.1312 99.0893 95.368 99.0893 94.4103V90.9834C99.0893 84.6385 94.1794 79.401 87.8859 78.9969H87.8115ZM18.7764 65.2297C22.5406 65.2297 25.6055 68.2974 25.6055 72.0984C25.6055 75.8993 22.5555 78.967 18.7764 78.967C14.9973 78.967 11.9472 75.8993 11.9472 72.0984C11.9472 68.3124 15.0122 65.2297 18.7764 65.2297ZM49.5 72.0984C53.2642 72.0984 56.3291 75.1661 56.3291 78.967C56.3291 82.768 53.2791 85.8357 49.5 85.8357C45.7209 85.8357 42.6709 82.768 42.6709 78.967C42.6709 75.181 45.7358 72.0984 49.5 72.0984ZM80.2236 65.2297C83.9878 65.2297 87.0527 68.2974 87.0527 72.0984C87.0527 75.8993 84.0027 78.967 80.2236 78.967C76.4445 78.967 73.3945 75.8993 73.3945 72.0984C73.3945 68.3124 76.4594 65.2297 80.2236 65.2297Z" fill="#A92F11"/>
</g>
<defs>
<clipPath id="clip0_192_133">
<rect width="99" height="103" fill="white"/>
</clipPath>
</defs>
</svg>
