<svg width="105" height="130" viewBox="0 0 105 130" fill="none" xmlns="http://www.w3.org/2000/svg">
<g clip-path="url(#clip0_192_258)">
<path d="M37.7921 111.121H46.1903V119.507C46.1903 120.658 47.1259 121.614 48.3008 121.614H56.699C57.8522 121.614 58.8095 120.68 58.8095 119.507V111.121H67.2078C68.3609 111.121 69.3182 110.187 69.3182 109.014V100.628C69.3182 99.4769 68.3826 98.5211 67.2078 98.5211H58.8095V90.1354C58.8095 88.984 57.8739 88.0281 56.699 88.0281H48.3008C47.1477 88.0281 46.1903 88.9622 46.1903 90.1354V98.5211H37.7921C36.639 98.5211 35.6816 99.4552 35.6816 100.628V109.014C35.6816 110.165 36.6172 111.121 37.7921 111.121ZM39.9025 102.736H48.3008C49.4539 102.736 50.4112 101.801 50.4112 100.628V92.2426H54.6104V100.628C54.6104 101.78 55.5459 102.736 56.7208 102.736H65.1191V106.928H56.7208C55.5677 106.928 54.6104 107.863 54.6104 109.036V117.421H50.4112V109.036C50.4112 107.884 49.4757 106.928 48.3008 106.928H39.9025V102.736Z" fill="#A92F11"/>
<path d="M52.5 0C23.5195 0.0217246 0.0217572 23.4843 0 52.4215C0 52.9428 0.195814 53.4642 0.565686 53.8553L27.3052 82.5969V127.893C27.3052 129.044 28.2408 130 29.4157 130H75.6061C76.7592 130 77.7165 129.066 77.7165 127.893V82.5969L104.456 53.8553C104.826 53.4642 105.022 52.9646 105.022 52.4215C104.956 23.4843 81.4805 0.0217246 52.5 0ZM52.5 4.19285C74.7141 4.21457 94.0562 19.3783 99.3867 40.9074C93.0553 35.889 83.8303 36.9535 78.8044 43.2754C78.391 43.7751 78.0211 44.3182 77.6948 44.883C73.5392 37.9311 64.5317 35.6501 57.5694 39.7995C55.4807 41.0378 53.7402 42.7757 52.5 44.8613C48.3444 37.9094 39.3152 35.6501 32.3746 39.8212C30.286 41.0595 28.5454 42.8192 27.3052 44.883C23.1714 37.9311 14.1857 35.6501 7.22337 39.7995C6.65769 40.1253 6.11376 40.4947 5.61334 40.9074C10.9221 19.3783 30.2642 4.21457 52.5 4.19285ZM74.6705 79.6641H66.3811L79.5659 53.3339C79.7182 53.0515 79.7835 52.7256 79.7835 52.3997C79.7835 46.621 84.4613 41.9285 90.2487 41.9285C95.7532 41.9285 100.344 46.1648 100.714 51.6611L74.6705 79.6641ZM4.2644 51.6828C4.65603 45.9258 9.66017 41.5809 15.4476 41.9719C20.9521 42.363 25.1948 46.9251 25.1948 52.4215C25.1948 52.7473 25.2601 53.0732 25.4124 53.3556L38.5972 79.6858H30.3077L4.2644 51.6828ZM43.2967 79.6641L29.4374 51.987C29.5462 46.2082 34.3328 41.6243 40.1202 41.733C45.9076 41.8416 50.4983 46.621 50.3896 52.3997V79.6641H43.2967ZM54.5887 52.4215C54.5887 46.6427 59.2882 41.9502 65.0756 41.9502C70.7107 41.9502 75.3233 46.382 75.5408 52.0087L61.6815 79.6858H54.5887V52.4215ZM73.4957 125.807H31.5044V83.8787H73.4957V125.807Z" fill="#A92F11"/>
</g>
<defs>
<clipPath id="clip0_192_258">
<rect width="105" height="130" fill="white"/>
</clipPath>
</defs>
</svg>
