<svg width="192" height="64" viewBox="0 0 192 64" fill="none" xmlns="http://www.w3.org/2000/svg">
<path d="M56.1579 29.297L56.0751 30.4283H44.5418C44.5602 32.1389 45.1305 33.5737 46.2525 34.7325C47.3746 35.873 48.7633 36.4432 50.4188 36.4432C52.3686 36.4432 53.9414 35.6707 55.137 34.1255L55.744 34.6222C54.3828 36.3696 52.6078 37.2434 50.4188 37.2434C48.5426 37.2434 46.9423 36.5812 45.6179 35.2568C44.3119 33.914 43.6589 32.2769 43.6589 30.3455C43.6589 28.4325 44.2935 26.8046 45.5627 25.4618C46.8503 24.119 48.4231 23.4476 50.2809 23.4476C51.918 23.4476 53.3068 23.981 54.4472 25.0479C55.5877 26.1148 56.1579 27.5312 56.1579 29.297ZM50.2257 24.2478C48.7358 24.2478 47.4573 24.7628 46.3905 25.7929C45.3236 26.823 44.7166 28.1106 44.5694 29.6557H55.275C55.3853 28.037 54.9347 26.731 53.923 25.7377C52.9297 24.7444 51.6972 24.2478 50.2257 24.2478ZM64.7731 23.4476C66.2079 23.4476 67.3575 23.8891 68.2221 24.772C69.105 25.6549 69.5465 26.9149 69.5465 28.552V36.9675H68.7187V34.6222C68.2405 35.4499 67.5599 36.0937 66.6769 36.5536C65.8124 37.0134 64.8467 37.2434 63.7798 37.2434C62.529 37.2434 61.4621 36.9399 60.5792 36.3329C59.6963 35.7258 59.2548 34.8613 59.2548 33.7392C59.2548 32.6908 59.6687 31.863 60.4964 31.256C61.3242 30.6306 62.4186 30.3179 63.7798 30.3179H68.7187V28.5244C68.7187 27.1265 68.3508 26.0688 67.6151 25.3514C66.8977 24.6156 65.932 24.2478 64.7179 24.2478C63.0992 24.2478 61.7105 25.0203 60.5516 26.5654L59.9446 26.0688C61.269 24.3213 62.8785 23.4476 64.7731 23.4476ZM63.8074 36.4432C65.1502 36.4432 66.2999 36.0293 67.2564 35.2016C68.2313 34.3739 68.7187 33.353 68.7187 32.1389V31.0905H63.8074C62.6302 31.0905 61.7197 31.3204 61.0759 31.7802C60.4505 32.2401 60.1377 32.8747 60.1377 33.6841C60.1377 34.5854 60.4964 35.2752 61.2138 35.7534C61.9496 36.2133 62.8141 36.4432 63.8074 36.4432ZM80.1865 23.6683C80.4072 23.6683 80.6647 23.6867 80.959 23.7235V24.4133H80.3244C79.1288 24.4133 78.0435 24.8272 77.0686 25.6549C76.0937 26.4827 75.6063 27.5863 75.6063 28.9659V36.9675H74.7785V23.7235H75.6063V26.2619C76.0661 25.4158 76.7007 24.772 77.5101 24.3305C78.3194 23.8891 79.2116 23.6683 80.1865 23.6683ZM98.4271 23.4476C100.303 23.4476 101.876 24.119 103.145 25.4618C104.414 26.7862 105.049 28.4141 105.049 30.3455C105.049 32.2585 104.405 33.8864 103.118 35.2292C101.848 36.572 100.285 37.2434 98.4271 37.2434C97.1946 37.2434 96.0542 36.9307 95.0057 36.3053C93.9572 35.6799 93.2031 34.8429 92.7432 33.7944V36.9675H91.9154V16.2738H92.7432V26.8965C93.2031 25.8481 93.9572 25.0111 95.0057 24.3857C96.0542 23.7603 97.1946 23.4476 98.4271 23.4476ZM98.4271 36.4432C100.083 36.4432 101.453 35.8546 102.538 34.6774C103.623 33.5001 104.166 32.0562 104.166 30.3455C104.166 28.6164 103.623 27.1725 102.538 26.0136C101.471 24.8364 100.101 24.2478 98.4271 24.2478C96.8635 24.2478 95.5207 24.7628 94.3987 25.7929C93.295 26.823 92.7432 28.3405 92.7432 30.3455C92.7432 32.3505 93.295 33.868 94.3987 34.8981C95.5207 35.9282 96.8635 36.4432 98.4271 36.4432ZM113.651 23.4476C115.086 23.4476 116.236 23.8891 117.1 24.772C117.983 25.6549 118.424 26.9149 118.424 28.552V36.9675H117.597V34.6222C117.118 35.4499 116.438 36.0937 115.555 36.5536C114.69 37.0134 113.725 37.2434 112.658 37.2434C111.407 37.2434 110.34 36.9399 109.457 36.3329C108.574 35.7258 108.133 34.8613 108.133 33.7392C108.133 32.6908 108.547 31.863 109.374 31.256C110.202 30.6306 111.297 30.3179 112.658 30.3179H117.597V28.5244C117.597 27.1265 117.229 26.0688 116.493 25.3514C115.776 24.6156 114.81 24.2478 113.596 24.2478C111.977 24.2478 110.588 25.0203 109.43 26.5654L108.823 26.0688C110.147 24.3213 111.756 23.4476 113.651 23.4476ZM112.685 36.4432C114.028 36.4432 115.178 36.0293 116.134 35.2016C117.109 34.3739 117.597 33.353 117.597 32.1389V31.0905H112.685C111.508 31.0905 110.598 31.3204 109.954 31.7802C109.328 32.2401 109.016 32.8747 109.016 33.6841C109.016 34.5854 109.374 35.2752 110.092 35.7534C110.828 36.2133 111.692 36.4432 112.685 36.4432ZM124.484 16.2738V36.9675H123.656V16.2738H124.484ZM134.156 23.4476C135.591 23.4476 136.741 23.8891 137.605 24.772C138.488 25.6549 138.93 26.9149 138.93 28.552V36.9675H138.102V34.6222C137.624 35.4499 136.943 36.0937 136.06 36.5536C135.195 37.0134 134.23 37.2434 133.163 37.2434C131.912 37.2434 130.845 36.9399 129.962 36.3329C129.079 35.7258 128.638 34.8613 128.638 33.7392C128.638 32.6908 129.052 31.863 129.879 31.256C130.707 30.6306 131.802 30.3179 133.163 30.3179H138.102V28.5244C138.102 27.1265 137.734 26.0688 136.998 25.3514C136.281 24.6156 135.315 24.2478 134.101 24.2478C132.482 24.2478 131.094 25.0203 129.935 26.5654L129.328 26.0688C130.652 24.3213 132.262 23.4476 134.156 23.4476ZM133.19 36.4432C134.533 36.4432 135.683 36.0293 136.639 35.2016C137.614 34.3739 138.102 33.353 138.102 32.1389V31.0905H133.19C132.013 31.0905 131.103 31.3204 130.459 31.7802C129.833 32.2401 129.521 32.8747 129.521 33.6841C129.521 34.5854 129.879 35.2752 130.597 35.7534C131.333 36.2133 132.197 36.4432 133.19 36.4432ZM149.321 23.4476C150.811 23.4476 151.979 23.9259 152.825 24.8824C153.69 25.8205 154.122 27.0437 154.122 28.552V36.9675H153.294V28.552C153.294 27.2644 152.936 26.2252 152.218 25.4342C151.501 24.6432 150.526 24.2478 149.294 24.2478C148.043 24.2478 147.013 24.6524 146.203 25.4618C145.394 26.2711 144.989 27.3012 144.989 28.552V36.9675H144.162V23.7235H144.989V25.8481C145.872 24.2478 147.316 23.4476 149.321 23.4476ZM165.07 23.4476C167.24 23.4476 169.006 24.3213 170.367 26.0688L169.76 26.5654C168.565 25.0203 167.001 24.2478 165.07 24.2478C163.396 24.2478 161.989 24.8364 160.848 26.0136C159.726 27.1909 159.165 28.6348 159.165 30.3455C159.165 32.0562 159.726 33.5001 160.848 34.6774C161.989 35.8546 163.387 36.4432 165.042 36.4432C166.992 36.4432 168.565 35.6707 169.76 34.1255L170.367 34.6222C169.006 36.3696 167.231 37.2434 165.042 37.2434C163.166 37.2434 161.566 36.572 160.241 35.2292C158.935 33.8864 158.282 32.2585 158.282 30.3455C158.282 28.4325 158.935 26.8046 160.241 25.4618C161.566 24.119 163.175 23.4476 165.07 23.4476ZM185.763 29.297L185.68 30.4283H174.147C174.165 32.1389 174.735 33.5737 175.857 34.7325C176.979 35.873 178.368 36.4432 180.024 36.4432C181.973 36.4432 183.546 35.6707 184.742 34.1255L185.349 34.6222C183.988 36.3696 182.213 37.2434 180.024 37.2434C178.147 37.2434 176.547 36.5812 175.223 35.2568C173.917 33.914 173.264 32.2769 173.264 30.3455C173.264 28.4325 173.898 26.8046 175.168 25.4618C176.455 24.119 178.028 23.4476 179.886 23.4476C181.523 23.4476 182.912 23.981 184.052 25.0479C185.192 26.1148 185.763 27.5312 185.763 29.297ZM179.831 24.2478C178.341 24.2478 177.062 24.7628 175.995 25.7929C174.928 26.823 174.321 28.1106 174.174 29.6557H184.88C184.99 28.037 184.539 26.731 183.528 25.7377C182.534 24.7444 181.302 24.2478 179.831 24.2478Z" fill="black"/>
<path d="M0.238607 53.9725C0.466026 55.1901 0.729721 56.2685 1.23523 57.296C2.92421 60.7259 8.99172 62.9769 12.4932 58.6648C14.0385 56.7617 15.2036 54.6361 16.4371 52.5456C18.6474 48.8005 21.2949 45.3546 23.7585 41.7829C26.175 38.28 28.642 34.7936 30.0624 30.7331C32.5458 23.6327 32.4155 16.683 28.4839 10.0842C26.2736 6.37517 22.9844 4.16724 18.5894 4.19995C13.6558 4.23718 9.42241 6.14371 6.24961 9.96712C2.30464 14.7209 1.8636 20.1749 3.47432 25.9407C3.56353 26.2598 3.75586 26.5621 3.63882 27.1033C2.6868 25.5259 2.0331 24.0024 1.6099 22.3813C-0.766934 13.2708 4.03288 4.86401 12.4604 1.43941C16.7543 -0.3056 21.1195 -0.608904 25.4499 1.33736C29.319 3.07642 31.9918 6.07127 33.818 9.8125C37.761 17.8897 37.4899 26.0274 33.8884 34.1288C31.8714 38.6664 28.8116 42.539 25.7369 46.3829C22.9171 49.9086 20.1268 53.4524 17.5562 57.1675C16.2176 59.1019 14.7075 60.8989 12.6454 62.1259C9.76449 63.8407 6.87371 63.5973 4.07808 61.9811C1.32503 60.3893 -0.0720711 57.9519 0.0028628 54.7316C0.00785839 54.511 -0.0273487 54.2672 0.238726 53.9723" fill="black"/>
<path d="M9.71856 11.7179C9.09411 12.282 8.5088 12.9177 7.98545 13.6418C7.01511 14.9829 6.38174 17.7781 6.46453 17.5893C7.26537 15.7695 8.31064 14.2426 9.6309 13.0645L9.71856 11.7179Z" fill="black"/>
<path d="M12.7383 9.75516C11.865 10.1372 11.025 10.6353 10.2455 11.2603L10.1562 12.6261C10.7901 12.132 11.4854 11.7166 12.2398 11.3772L12.7383 9.75516Z" fill="black"/>
<path d="M15.5067 10.483L16.4241 8.89366C15.3774 8.93672 14.3353 9.14344 13.3316 9.51264L12.8335 11.1328C13.5982 10.8438 14.4194 10.6288 15.308 10.5028C15.3743 10.4934 15.4402 10.4909 15.5067 10.483Z" fill="black"/>
<path d="M18.8386 10.7877L19.9477 9.39999C18.9853 9.07385 17.9936 8.90388 17.0009 8.88651L16.1079 10.4332C17.0436 10.3941 17.9634 10.523 18.8386 10.7877Z" fill="black"/>
<path d="M22.9886 11.0658C22.9227 11.0143 22.8608 10.9608 22.7933 10.9102C22.0445 10.3462 21.251 9.91108 20.4339 9.58542L19.3391 10.9553C20.2644 11.2988 21.1237 11.8077 21.8889 12.4416L22.9886 11.0658Z" fill="black"/>
<path d="M24.252 15.4507L25.6986 14.0042C25.0925 13.0462 24.3189 12.1674 23.3763 11.3746L22.2642 12.7662C23.0363 13.4814 23.6944 14.3348 24.1831 15.3036C24.2073 15.3521 24.2281 15.4017 24.2519 15.4507" fill="black"/>
<path d="M27.0645 17.4089C26.8513 16.3512 26.4832 15.3606 25.9633 14.4403L24.4751 15.9291C24.8131 16.7141 25.0465 17.5175 25.1744 18.3437L27.0646 17.409L27.0645 17.4089Z" fill="black"/>
<path d="M25.2672 20.4095C25.2647 20.4501 25.2568 20.4847 25.2524 20.5234L27.1847 21.0834C27.1986 20.9912 27.2204 20.9075 27.2293 20.8108C27.3195 19.7993 27.2863 18.8373 27.1475 17.9205L25.24 18.8636C25.2896 19.3695 25.3015 19.8836 25.2672 20.4095Z" fill="black"/>
<path d="M25.4882 23.4583C26.2941 23.1342 26.8426 22.5028 27.0919 21.5726L25.1339 21.0046C25.001 21.3134 24.7661 21.5022 24.4514 21.5939L25.4882 23.4583Z" fill="black"/>
<path d="M23.5279 23.6867C23.6562 23.6961 23.7846 23.7084 23.9135 23.712C24.3115 23.7214 24.6738 23.6848 25.0053 23.6095L23.9209 21.6598C23.5174 21.6454 23.1155 21.6003 22.7136 21.5468L23.5279 23.6867Z" fill="black"/>
<path d="M21.0509 23.394C21.1159 23.3994 21.1793 23.4024 21.2447 23.4093C21.8236 23.4697 22.4005 23.5669 22.9783 23.6358L22.1541 21.4701C22.002 21.4488 21.8494 21.4269 21.6967 21.4076C21.211 21.3452 20.7357 21.3283 20.2673 21.3348L21.0509 23.394Z" fill="black"/>
<path d="M18.7693 23.4919C19.3244 23.3887 19.9047 23.3447 20.5088 23.3624L19.7431 21.3503C19.1627 21.3894 18.6012 21.4861 18.0586 21.6243L18.7693 23.4917V23.4919Z" fill="black"/>
<path d="M20.5733 38.3169C17.519 38.1385 15.0946 36.8856 13.7708 34.0097C12.5501 31.3568 12.7776 28.7172 14.4309 26.3448C15.4444 24.8912 16.7577 24.0066 18.2842 23.6101L17.5785 21.7561C14.5345 22.7111 12.2404 25.1936 11.56 28.4164C11.3905 29.2202 11.3211 30.0702 11.3653 30.9538C11.6482 36.5858 17.0299 40.3979 22.5141 38.8512C24.2353 38.3655 24.6516 38.1716 25.2345 37.511C23.7283 38.1245 22.1767 38.4105 20.5733 38.3169Z" fill="black"/>
</svg>
